<?xml version="1.0" encoding="UTF-8"?>
<svg width="259px" height="261px" viewBox="0 0 259 261" version="1.1" xmlns="http://www.w3.org/2000/svg" xmlns:xlink="http://www.w3.org/1999/xlink">
    <!-- Generator: Sketch 51.2 (57519) - http://www.bohemiancoding.com/sketch -->
    <title>sprite-logo</title>
    <desc>Created with Sketch.</desc>
    <defs></defs>
    <g id="Page-1" stroke="none" stroke-width="1" fill="none" fill-rule="evenodd">
        <g id="sprite-logo" fill="#FFFFFF" fill-rule="nonzero">
            <g id="logo-hudsonsBay_small" transform="translate(0.000000, 210.000000)">
                <path d="M1.73684211,18.2052632 C1.70989377,18.022439 1.77103545,17.8376446 1.90170846,17.7069716 C2.03238146,17.5762986 2.21717589,17.5151569 2.4,17.5421053 L3.15789474,17.5421053 C3.34071884,17.5151569 3.52551328,17.5762986 3.65618628,17.7069716 C3.78685928,17.8376446 3.84800097,18.022439 3.82105263,18.2052632 L3.82105263,20.9684211 L6.97894737,20.9684211 L6.97894737,18.2052632 C6.95199903,18.022439 7.01314072,17.8376446 7.14381372,17.7069716 C7.27448672,17.5762986 7.45928116,17.5151569 7.64210526,17.5421053 L8.41578947,17.5421053 C8.59714766,17.5217572 8.77790843,17.5850557 8.90695268,17.7141 C9.03599693,17.8431442 9.09929542,18.023905 9.07894737,18.2052632 L9.07894737,25.4684211 C9.09929542,25.6497792 9.03599693,25.83054 8.90695268,25.9595843 C8.77790843,26.0886285 8.59714766,26.151927 8.41578947,26.1315789 L7.62631579,26.1315789 C7.4449576,26.151927 7.26419683,26.0886285 7.13515258,25.9595843 C7.00610833,25.83054 6.94280984,25.6497792 6.96315789,25.4684211 L6.96315789,22.7684211 L3.80526316,22.7684211 L3.80526316,25.4684211 C3.82561121,25.6497792 3.76231272,25.83054 3.63326847,25.9595843 C3.50422422,26.0886285 3.32346345,26.151927 3.14210526,26.1315789 L2.4,26.1315789 C2.21864181,26.151927 2.03788104,26.0886285 1.90883679,25.9595843 C1.77979254,25.83054 1.71649405,25.6497792 1.73684211,25.4684211 L1.73684211,18.2052632 Z" id="Shape"></path>
                <path d="M14.7631579,17.3684211 C15.951165,17.3113489 17.1096438,17.7494952 17.9625458,18.5784561 C18.8154478,19.407417 19.2863915,20.552955 19.2631579,21.7421053 C19.3031456,22.9473937 18.841893,24.1153673 17.9891565,24.9681038 C17.1364199,25.8208404 15.9684464,26.2820929 14.7631579,26.2421053 C13.5605661,26.2776353 12.3967898,25.8144135 11.5475543,24.9621878 C10.6983189,24.1099621 10.2391906,22.9445647 10.2789474,21.7421053 C10.2512615,20.5544262 10.7185863,19.4086963 11.569046,18.5791986 C12.4195057,17.7497009 13.5765394,17.3111094 14.7631579,17.3684211 Z M14.7631579,24.3157895 C15.4186924,24.3005077 16.0389973,24.0159203 16.4781409,23.5289788 C16.9172844,23.0420374 17.1364982,22.3957298 17.0842105,21.7421053 C17.0842106,20.912873 16.6418204,20.1466308 15.9236842,19.7320147 C15.205548,19.3173985 14.3207678,19.3173985 13.6026316,19.7320147 C12.8844954,20.1466308 12.4421052,20.912873 12.4421053,21.7421053 C12.3805944,22.4009265 12.5956395,23.0556799 13.0357974,23.5497346 C13.4759552,24.0437893 14.1016339,24.3327056 14.7631579,24.3473684 L14.7631579,24.3157895 Z" id="Shape"></path>
                <path d="M20.5263158,18.2052632 C20.5059677,18.023905 20.5692662,17.8431442 20.6983105,17.7141 C20.8273547,17.5850557 21.0081155,17.5217572 21.1894737,17.5421053 L23.6842105,17.5421053 C25.4052632,17.5421053 26.6052632,18.3 26.6052632,19.7842105 C26.6182537,20.5270398 26.2406803,21.2222543 25.6105263,21.6157895 C26.4073064,21.9261318 26.9073624,22.7210926 26.8421053,23.5736842 C26.8421053,25.4368421 25.2631579,26.1315789 23.5736842,26.1315789 L21.1263158,26.1315789 C20.9449576,26.151927 20.7641968,26.0886285 20.6351526,25.9595843 C20.5061083,25.83054 20.4428098,25.6497792 20.4631579,25.4684211 L20.5263158,18.2052632 Z M23.6842105,20.8578947 C23.8937265,20.8678296 24.0973078,20.7867029 24.2425673,20.6353909 C24.3878268,20.4840789 24.4605799,20.2773573 24.4421053,20.0684211 C24.4535269,19.8610889 24.3716098,19.6595169 24.2187963,19.5189285 C24.0659828,19.37834 23.8582949,19.3134755 23.6526316,19.3421053 L22.5947368,19.3421053 L22.5947368,20.9210526 L23.6842105,20.8578947 Z M23.8578947,24.3315789 C24.1047704,24.3454559 24.3458552,24.253436 24.5206983,24.078593 C24.6955413,23.90375 24.7875611,23.6626651 24.7736842,23.4157895 C24.7887339,23.1755302 24.6975852,22.9407705 24.5243513,22.7736149 C24.3511173,22.6064593 24.1132529,22.5237504 23.8736842,22.5473684 L22.5947368,22.5473684 L22.5947368,24.3315789 L23.8578947,24.3315789 Z" id="Shape"></path>
                <path d="M27.8052632,24.5052632 L28.1842105,23.9684211 C28.4210526,23.6210526 28.6894737,23.5894737 29.0842105,23.8105263 C29.5545315,24.1221382 30.0997466,24.3020592 30.6631579,24.3315789 C31.2947368,24.3315789 31.5789474,24.0789474 31.5789474,23.7315789 C31.5789474,22.5157895 27.7894737,22.7210526 27.7894737,20.0210526 C27.8113143,19.2539085 28.1530342,18.5308687 28.7319016,18.0269841 C29.310769,17.5230995 30.0740105,17.2843077 30.8368421,17.3684211 C31.6489998,17.36082 32.4472318,17.5795137 33.1421053,18 C33.2971368,18.0845339 33.4084189,18.231554 33.4476835,18.4037139 C33.486948,18.5758739 33.4504164,18.7566059 33.3473684,18.9 L33.0631579,19.4684211 C32.8263158,19.9263158 32.4947368,19.8631579 32.1631579,19.6894737 C31.7496878,19.4486657 31.2833931,19.3131149 30.8052632,19.2947368 C30.1421053,19.2947368 29.8736842,19.5631579 29.8736842,19.8947368 C29.8736842,21.1421053 33.6631579,20.8421053 33.6631579,23.5578947 C33.6540105,24.3261333 33.3217583,25.0550016 32.7478606,25.5658007 C32.1739629,26.0765997 31.4114858,26.3220977 30.6473684,26.2421053 C29.6761002,26.2430466 28.7280188,25.9453931 27.9315789,25.3894737 C27.7855829,25.2982002 27.6872843,25.1471724 27.6629344,24.9767237 C27.6385846,24.8062749 27.6906636,24.6337646 27.8052632,24.5052632 Z" id="Shape"></path>
                <path d="M38.9368421,17.3684211 C40.1234606,17.3111094 41.2804943,17.7497009 42.130954,18.5791986 C42.9814137,19.4086963 43.4487385,20.5544262 43.4210526,21.7421053 C43.5200122,23.4105358 42.6861218,24.9963696 41.2554633,25.86047 C39.8248048,26.7245704 38.03309,26.7245704 36.6024315,25.86047 C35.1717729,24.9963696 34.3378826,23.4105358 34.4368421,21.7421053 C34.4136085,20.552955 34.8845522,19.407417 35.7374542,18.5784561 C36.5903562,17.7494952 37.748835,17.3113489 38.9368421,17.3684211 Z M38.9368421,24.3157895 C39.5923766,24.3005077 40.2126816,24.0159203 40.6518251,23.5289788 C41.0909686,23.0420374 41.3101824,22.3957298 41.2578947,21.7421053 C41.2578947,20.4602233 40.2187241,19.4210526 38.9368421,19.4210526 C37.6549601,19.4210526 36.6157895,20.4602233 36.6157895,21.7421053 C36.5542786,22.4009265 36.7693237,23.0556799 37.2094816,23.5497346 C37.6496394,24.0437893 38.2753181,24.3327056 38.9368421,24.3473684 L38.9368421,24.3157895 Z" id="Shape"></path>
                <path d="M44.6368421,18.2052632 C44.616494,18.023905 44.6797925,17.8431442 44.8088368,17.7141 C44.937881,17.5850557 45.1186418,17.5217572 45.3,17.5421053 L46.2315789,17.5421053 C46.5641248,17.5158036 46.8805295,17.689516 47.0368421,17.9842105 L49.1368421,21.5526316 C49.4080444,22.0271669 49.6505838,22.5175184 49.8631579,23.0210526 C49.8631579,23.0210526 49.7526316,22.0894737 49.7526316,21.5526316 L49.7526316,18.2052632 C49.7322835,18.023905 49.795582,17.8431442 49.9246263,17.7141 C50.0536705,17.5850557 50.2344313,17.5217572 50.4157895,17.5421053 L51.2052632,17.5421053 C51.3866213,17.5217572 51.5673821,17.5850557 51.6964264,17.7141 C51.8254706,17.8431442 51.8887691,18.023905 51.8684211,18.2052632 L51.8684211,25.4684211 C51.8887691,25.6497792 51.8254706,25.83054 51.6964264,25.9595843 C51.5673821,26.0886285 51.3866213,26.151927 51.2052632,26.1315789 L50.2578947,26.1315789 C49.9319241,26.146245 49.6282059,25.9664934 49.4842105,25.6736842 L47.3684211,22.1052632 C47.1046446,21.6346976 46.867431,21.1497276 46.6578947,20.6526316 C46.6578947,20.6526316 46.7526316,21.5684211 46.7526316,22.1052632 L46.7526316,25.4526316 C46.7729796,25.6339898 46.7096811,25.8147505 46.5806369,25.9437948 C46.4515926,26.072839 46.2708319,26.1361375 46.0894737,26.1157895 L45.3157895,26.1157895 C45.1344313,26.1361375 44.9536705,26.072839 44.8246263,25.9437948 C44.695582,25.8147505 44.6322835,25.6339898 44.6526316,25.4526316 L44.6368421,18.2052632 Z" id="Shape"></path>
                <path d="M53.2736842,24.5052632 L53.6526316,23.9684211 C53.8894737,23.6210526 54.1578947,23.5894737 54.5526316,23.8105263 C55.0229525,24.1221382 55.5681676,24.3020592 56.1315789,24.3315789 C56.7631579,24.3315789 57.0473684,24.0789474 57.0473684,23.7315789 C57.0473684,22.5157895 53.2578947,22.7210526 53.2578947,20.0210526 C53.2797353,19.2539085 53.6214553,18.5308687 54.2003227,18.0269841 C54.7791901,17.5230995 55.5424316,17.2843077 56.3052632,17.3684211 C57.1174209,17.36082 57.9156528,17.5795137 58.6105263,18 C58.7655579,18.0845339 58.87684,18.231554 58.9161045,18.4037139 C58.9553691,18.5758739 58.9188375,18.7566059 58.8157895,18.9 L58.5315789,19.4684211 C58.2947368,19.9263158 57.9631579,19.8631579 57.6315789,19.6894737 C57.2181089,19.4486657 56.7518141,19.3131149 56.2736842,19.2947368 C55.6105263,19.2947368 55.3421053,19.5631579 55.3421053,19.8947368 C55.3421053,21.1421053 59.1315789,20.8421053 59.1315789,23.5578947 C59.1224316,24.3261333 58.7901794,25.0550016 58.2162817,25.5658007 C57.6423839,26.0765997 56.8799069,26.3220977 56.1157895,26.2421053 C55.1445212,26.2430466 54.1964399,25.9453931 53.4,25.3894737 C53.254004,25.2982002 53.1557053,25.1471724 53.1313555,24.9767237 C53.1070057,24.8062749 53.1590846,24.6337646 53.2736842,24.5052632 Z" id="Shape"></path>
                <path d="M1.73684211,30.1736842 C1.71649405,29.992326 1.77979254,29.8115653 1.90883679,29.682521 C2.03788104,29.5534768 2.21864181,29.4901783 2.4,29.5105263 L4.89473684,29.5105263 C6.61578947,29.5105263 7.81578947,30.2842105 7.81578947,31.7526316 C7.82878001,32.4954608 7.45120662,33.1906753 6.82105263,33.5842105 C7.65323458,33.8480168 8.20397111,34.6384857 8.16315789,35.5105263 C8.16315789,37.3894737 6.58421053,38.0684211 4.89473684,38.0684211 L2.4,38.0684211 C2.21717589,38.0953694 2.03238146,38.0342277 1.90170846,37.9035547 C1.77103545,37.7728817 1.70989377,37.5880873 1.73684211,37.4052632 L1.73684211,30.1736842 Z M4.89473684,32.8421053 C5.10425284,32.8520401 5.30783408,32.7709135 5.45309361,32.6196014 C5.59835314,32.4682894 5.67110624,32.2615678 5.65263158,32.0526316 C5.66904964,31.8426401 5.58931323,31.636539 5.43584066,31.4922748 C5.2823681,31.3480106 5.07173349,31.2811629 4.86315789,31.3105263 L3.83684211,31.3105263 L3.83684211,32.8894737 L4.89473684,32.8421053 Z M5.1,36.3157895 C5.34533557,36.3344353 5.58676605,36.2461903 5.76225102,36.073731 C5.93773599,35.9012716 6.03016607,35.6614122 6.01578947,35.4157895 C6.03020305,35.1743481 5.93944732,34.9384791 5.76691174,34.7689705 C5.59437616,34.5994618 5.35693798,34.5128947 5.11578947,34.5315789 L3.83684211,34.5315789 L3.83684211,36.3157895 L5.1,36.3157895 Z" id="Shape"></path>
                <path d="M11.1631579,30 C11.246795,29.6642166 11.5601714,29.4375188 11.9052632,29.4631579 L12.9947368,29.4631579 C13.3398286,29.4375188 13.653205,29.6642166 13.7368421,30 L16.2157895,37.2947368 C16.3069683,37.4682735 16.2930311,37.6783004 16.1797211,37.8382674 C16.0664112,37.9982343 15.8729061,38.0810673 15.6789474,38.0526316 L14.8894737,38.0526316 C14.5748506,38.0573983 14.2963063,37.8501095 14.2105263,37.5473684 L13.7842105,36.3157895 L11.0526316,36.3157895 L10.6894737,37.5631579 C10.6257457,37.9068849 10.3114317,38.1460369 9.96315789,38.1157895 L9.17368421,38.1157895 C8.68421053,38.1157895 8.47894737,37.8157895 8.62105263,37.3578947 L11.1631579,30 Z M13.2947368,34.5631579 L12.8052632,32.9052632 C12.6473684,32.3684211 12.4578947,31.4210526 12.4578947,31.4210526 C12.4578947,31.4210526 12.2526316,32.3684211 12.0947368,32.9052632 L11.6052632,34.5631579 L13.2947368,34.5631579 Z" id="Shape"></path>
                <path d="M18.3631579,34.5789474 L15.9789474,30.3 C15.7105263,29.8421053 15.9789474,29.5105263 16.4368421,29.5105263 L17.3684211,29.5105263 C17.7042494,29.492228 18.0147994,29.6886984 18.1421053,30 L18.9473684,31.5789474 C19.2157895,32.1631579 19.4526316,32.8105263 19.4526316,32.8105263 C19.4526316,32.8105263 19.6894737,32.1631579 19.9736842,31.5789474 L20.7,30 C20.8233286,29.6853903 21.1365702,29.4872171 21.4736842,29.5105263 L22.4210526,29.5105263 C22.9263158,29.5105263 23.1315789,29.8421053 22.8789474,30.3 L20.5263158,34.5789474 L20.5263158,37.4368421 C20.5532641,37.6196662 20.4921224,37.8044606 20.3614494,37.9351336 C20.2307764,38.0658067 20.045982,38.1269483 19.8631579,38.1 L19.0894737,38.1 C18.9081155,38.1203481 18.7273547,38.0570496 18.5983105,37.9280053 C18.4692662,37.7989611 18.4059677,37.6182003 18.4263158,37.4368421 L18.3631579,34.5789474 Z" id="Shape"></path>
                <path d="M30.8684211,29.5421053 C31.8996706,29.5158795 32.908622,29.8447642 33.7263158,30.4736842 C33.8210526,30.5526316 33.8210526,30.6473684 33.7263158,30.7578947 L33.7263158,30.8368421 C33.6904398,30.8833298 33.6350371,30.9105562 33.5763158,30.9105562 C33.5175945,30.9105562 33.4621917,30.8833298 33.4263158,30.8368421 C32.6912677,30.2912406 31.7996183,29.9977163 30.8842105,30 C29.8860431,29.9807587 28.9250817,30.3787073 28.2327554,31.0980073 C27.5404291,31.8173074 27.1794823,32.79277 27.2368421,33.7894737 C27.1760111,34.8043463 27.5360684,35.7994378 28.232222,36.5404081 C28.9283756,37.2813785 29.8990985,37.7027398 30.9157895,37.7052632 C31.9045969,37.7005892 32.8602988,37.3484885 33.6157895,36.7105263 C33.6517578,36.669742 33.7035157,36.6463777 33.7578947,36.6463777 C33.8122738,36.6463777 33.8640316,36.669742 33.9,36.7105263 C33.9464877,36.7464023 33.9737141,36.801805 33.9737141,36.8605263 C33.9737141,36.9192476 33.9464877,36.9746504 33.9,37.0105263 C33.0578588,37.7377883 31.9811171,38.1359584 30.8684211,38.1315789 C29.7138436,38.141908 28.6063161,37.6746794 27.8080104,36.8404949 C27.0097047,36.0063103 26.5915864,34.8793246 26.6526316,33.7263158 C26.6306411,32.604479 27.0687924,31.5225296 27.8651803,30.7321072 C28.6615682,29.9416847 29.7467813,29.5116807 30.8684211,29.5421053 Z" id="Shape"></path>
                <path d="M35.8421053,29.9052632 C35.8372251,29.8494704 35.857278,29.794377 35.8968801,29.7547749 C35.9364822,29.7151728 35.9915756,29.6951198 36.0473684,29.7 L36.1578947,29.7 C36.3,29.7 36.3631579,29.7 36.3631579,29.9052632 L36.3631579,37.8947368 C36.3680381,37.9505296 36.3479851,38.005623 36.308383,38.0452251 C36.2687809,38.0848272 36.2136875,38.1048802 36.1578947,38.1 L36.0473684,38.1 C35.9915756,38.1048802 35.9364822,38.0848272 35.8968801,38.0452251 C35.857278,38.005623 35.8372251,37.9505296 35.8421053,37.8947368 L35.8421053,29.9052632 Z" id="Shape"></path>
                <path d="M40.8315789,30.1736842 L37.8947368,30.1736842 C37.838944,30.1785644 37.7838506,30.1585114 37.7442485,30.1189093 C37.7046464,30.0793072 37.6845935,30.0242139 37.6894737,29.9684211 C37.6894737,29.8263158 37.6894737,29.7631579 37.8947368,29.7631579 L44.2105263,29.7631579 C44.3526316,29.7631579 44.4157895,29.7631579 44.4157895,29.9684211 C44.4206697,30.0242139 44.4006167,30.0793072 44.3610146,30.1189093 C44.3214125,30.1585114 44.2663191,30.1785644 44.2105263,30.1736842 L41.3526316,30.1736842 L41.3526316,37.8947368 C41.3575118,37.9505296 41.3374588,38.005623 41.2978567,38.0452251 C41.2582546,38.0848272 41.2031612,38.1048802 41.1473684,38.1 L41.0526316,38.1 C40.9968388,38.1048802 40.9417454,38.0848272 40.9021433,38.0452251 C40.8625412,38.005623 40.8424882,37.9505296 40.8473684,37.8947368 L40.8315789,30.1736842 Z" id="Shape"></path>
                <path d="M47.5578947,34.4526316 L44.8421053,30 C44.8421053,29.8578947 44.8421053,29.7631579 44.9842105,29.7631579 L45.1263158,29.7631579 C45.2263199,29.7605077 45.321065,29.8078803 45.3789474,29.8894737 L47.2736842,33.0473684 C47.5263158,33.4421053 47.7947368,33.9947368 47.7947368,33.9947368 C47.9446782,33.6694335 48.1133832,33.3531116 48.3,33.0473684 L50.2105263,29.8894737 C50.2684087,29.8078803 50.3631538,29.7605077 50.4631579,29.7631579 L50.6052632,29.7631579 C50.7631579,29.7631579 50.8263158,29.8578947 50.7473684,30 L48.0473684,34.5157895 L48.0473684,37.8947368 C48.0522486,37.9505296 48.0321957,38.005623 47.9925936,38.0452251 C47.9529915,38.0848272 47.8978981,38.1048802 47.8421053,38.1 L47.7315789,38.1 C47.6757861,38.1048802 47.6206928,38.0848272 47.5810907,38.0452251 C47.5414886,38.005623 47.5214356,37.9505296 47.5263158,37.8947368 L47.5578947,34.4526316 Z" id="Shape"></path>
                <path d="M5.74736842,41.5263158 C6.77654397,41.4968537 7.78488704,41.8199692 8.60526316,42.4421053 C8.68350564,42.5268005 8.68350564,42.65741 8.60526316,42.7421053 C8.56644554,42.7836606 8.51212841,42.8072507 8.45526316,42.8072507 C8.3983979,42.8072507 8.34408078,42.7836606 8.30526316,42.7421053 C7.57746296,42.2075604 6.69774839,41.9198551 5.79473684,41.9210526 C4.7779389,41.8958931 3.79794628,42.3020263 3.09701769,43.0390542 C2.39608909,43.7760821 2.03964116,44.775219 2.11578947,45.7894737 C2.05495849,46.8043463 2.4150158,47.7994378 3.11116939,48.5404081 C3.80732298,49.2813785 4.77804588,49.7027398 5.79473684,49.7052632 C6.78354423,49.7005892 7.73924617,49.3484885 8.49473684,48.7105263 C8.53070521,48.669742 8.58246305,48.6463777 8.63684211,48.6463777 C8.69122116,48.6463777 8.742979,48.669742 8.77894737,48.7105263 C8.82522647,48.743048 8.85277018,48.7960682 8.85277018,48.8526316 C8.85277018,48.9091949 8.82522647,48.9622152 8.77894737,48.9947368 C7.94367705,49.7353739 6.86367592,50.1403744 5.74736842,50.1315789 C4.61388395,50.1237062 3.53170547,49.658015 2.74671246,48.8403139 C1.96171945,48.0226129 1.54056812,46.9223356 1.57894737,45.7894737 C1.53542502,44.6625471 1.95742029,43.5673437 2.74586184,42.760983 C3.53430339,41.9546224 4.61974848,41.5081254 5.74736842,41.5263158 Z" id="Shape"></path>
                <path d="M14.2105263,41.5263158 C15.3490901,41.5047785 16.4475966,41.9464912 17.2543138,42.7502316 C18.061031,43.553972 18.5068017,44.6508381 18.4894737,45.7894737 C18.5858923,47.3715926 17.7965893,48.8765863 16.4402532,49.6967993 C15.0839172,50.5170122 13.3845039,50.5170122 12.0281678,49.6967993 C10.6718317,48.8765863 9.88252871,47.3715926 9.97894737,45.7894737 C9.96625271,44.6604496 10.4069783,43.5735172 11.2023959,42.7721637 C11.9978135,41.9708102 13.081439,41.5220156 14.2105263,41.5263158 Z M14.2105263,49.7210526 C15.2367122,49.7223689 16.2184119,49.3022108 16.9259032,48.5588971 C17.6333945,47.8155835 18.0045912,46.8143441 17.9526316,45.7894737 C17.9526316,43.7402066 16.2913724,42.0789474 14.2421053,42.0789474 C12.1928382,42.0789474 10.5315789,43.7402066 10.5315789,45.7894737 C10.4800479,46.803467 10.8427488,47.7948754 11.536462,48.5362255 C12.2301751,49.2775756 13.1953478,49.7052253 14.2105263,49.7210526 Z" id="Shape"></path>
                <path d="M20.2894737,41.8736842 C20.2845935,41.8178914 20.3046464,41.762798 20.3442485,41.7231959 C20.3838506,41.6835938 20.438944,41.6635409 20.4947368,41.6684211 L20.6052632,41.6684211 C20.661056,41.6635409 20.7161494,41.6835938 20.7557515,41.7231959 C20.7953536,41.762798 20.8154065,41.8178914 20.8105263,41.8736842 L20.8105263,47.1631579 C20.7615935,47.8638517 21.0220716,48.5508129 21.5232792,49.0429077 C22.0244868,49.5350024 22.7161113,49.7828329 23.4157895,49.7210526 C24.122259,49.7877139 24.8223095,49.5403961 25.3301226,49.0447462 C25.8379357,48.5490963 26.1021492,47.8552462 26.0526316,47.1473684 L26.0526316,41.8736842 C26.0477514,41.8178914 26.0678043,41.762798 26.1074064,41.7231959 C26.1470085,41.6835938 26.2021019,41.6635409 26.2578947,41.6684211 L26.3684211,41.6684211 C26.4242139,41.6635409 26.4793072,41.6835938 26.5189093,41.7231959 C26.5585114,41.762798 26.5785644,41.8178914 26.5736842,41.8736842 L26.5736842,47.1947368 C26.6081798,48.031303 26.2820347,48.8424529 25.6780337,49.4222939 C25.0740326,50.0021348 24.2502516,50.294914 23.4157895,50.2263158 C22.5813273,50.294914 21.7575463,50.0021348 21.1535453,49.4222939 C20.5495442,48.8424529 20.2233991,48.031303 20.2578947,47.1947368 L20.2894737,41.8736842 Z" id="Shape"></path>
                <path d="M28.9736842,41.8736842 C28.968804,41.8178914 28.988857,41.762798 29.0284591,41.7231959 C29.0680612,41.6835938 29.1231546,41.6635409 29.1789474,41.6684211 L29.2894737,41.6684211 C29.3908201,41.6592343 29.4886468,41.7081477 29.5421053,41.7947368 L34.2789474,48.2684211 C34.5473684,48.6473684 34.9578947,49.3263158 34.9578947,49.3263158 C34.9578947,49.3263158 34.9578947,48.6789474 34.9578947,48.2684211 L34.9578947,41.8736842 C34.9530146,41.8178914 34.9730675,41.762798 35.0126696,41.7231959 C35.0522717,41.6835938 35.1073651,41.6635409 35.1631579,41.6684211 L35.2578947,41.6684211 C35.3136875,41.6635409 35.3687809,41.6835938 35.408383,41.7231959 C35.4479851,41.762798 35.4680381,41.8178914 35.4631579,41.8736842 L35.4631579,49.8789474 C35.4631579,50.0052632 35.4631579,50.0684211 35.2578947,50.0684211 L35.1473684,50.0684211 C35.046022,50.0776078 34.9481953,50.0286944 34.8947368,49.9421053 L30.1578947,43.4842105 C29.8736842,43.1052632 29.4631579,42.4263158 29.4631579,42.4263158 C29.4631579,42.4263158 29.4631579,43.0578947 29.4631579,43.4842105 L29.4631579,49.8789474 C29.4631579,50.0052632 29.4631579,50.0684211 29.2578947,50.0684211 L29.1631579,50.0684211 C29.0210526,50.0684211 28.9578947,50.0684211 28.9578947,49.8789474 L28.9736842,41.8736842 Z" id="Shape"></path>
                <path d="M41.5105263,41.5263158 C42.5397019,41.4968537 43.5480449,41.8199692 44.3684211,42.4421053 C44.4099764,42.4809229 44.4335665,42.53524 44.4335665,42.5921053 C44.4335665,42.6489705 44.4099764,42.7032876 44.3684211,42.7421053 C44.3324527,42.7828896 44.2806948,42.8062539 44.2263158,42.8062539 C44.1719367,42.8062539 44.1201789,42.7828896 44.0842105,42.7421053 C43.3515498,42.2053526 42.4661256,41.9175897 41.5578947,41.9210526 C40.5438125,41.900419 39.5680771,42.3085328 38.8706699,43.0450189 C38.1732627,43.7815049 37.8188999,44.7780206 37.8947368,45.7894737 C37.8291868,46.8055378 38.1876534,47.8033321 38.8848219,48.5453827 C39.5819904,49.2874333 40.5555101,49.7073754 41.5736842,49.7052632 C42.538781,49.6904233 43.4695609,49.3448643 44.2105263,48.7263158 C44.2464947,48.6855315 44.2982525,48.6621672 44.3526316,48.6621672 C44.4070106,48.6621672 44.4587685,48.6855315 44.4947368,48.7263158 C44.5410159,48.7588374 44.5685597,48.8118577 44.5685597,48.8684211 C44.5685597,48.9249844 44.5410159,48.9780047 44.4947368,49.0105263 C43.6667003,49.7527628 42.5909006,50.1582998 41.4789474,50.1473684 C40.348132,50.1311658 39.2716364,49.6596082 38.4930204,48.8393868 C37.7144045,48.0191654 37.299473,46.9196013 37.3421053,45.7894737 C37.2939146,44.6612642 37.7143821,43.5633435 38.5038524,42.7559306 C39.2933228,41.9485177 40.3815188,41.5034871 41.5105263,41.5263158 Z" id="Shape"></path>
                <path d="M46.4842105,41.8736842 C46.4793303,41.8178914 46.4993833,41.762798 46.5389854,41.7231959 C46.5785875,41.6835938 46.6336809,41.6635409 46.6894737,41.6684211 L46.8,41.6684211 C46.8557928,41.6635409 46.9108862,41.6835938 46.9504883,41.7231959 C46.9900904,41.762798 47.0101433,41.8178914 47.0052632,41.8736842 L47.0052632,49.8789474 C47.0052632,50.0052632 46.9263158,50.0684211 46.8,50.0684211 L46.6894737,50.0684211 C46.5631579,50.0684211 46.4842105,50.0684211 46.4842105,49.8789474 L46.4842105,41.8736842 Z" id="Shape"></path>
                <path d="M49.5315789,41.8736842 C49.5266988,41.8178914 49.5467517,41.762798 49.5863538,41.7231959 C49.6259559,41.6835938 49.6810493,41.6635409 49.7368421,41.6684211 L49.8315789,41.6684211 C49.8873717,41.6635409 49.9424651,41.6835938 49.9820672,41.7231959 C50.0216693,41.762798 50.0417223,41.8178914 50.0368421,41.8736842 L50.0368421,49.5947368 L53.8578947,49.5947368 C53.9842105,49.5947368 54.0473684,49.6736842 54.0473684,49.8 L54.0473684,49.8789474 C54.0523187,49.9305581 54.0339528,49.9816818 53.997291,50.0183436 C53.9606291,50.0550054 53.9095055,50.0733713 53.8578947,50.0684211 L49.7368421,50.0684211 C49.5947368,50.0684211 49.5315789,50.0684211 49.5315789,49.8789474 L49.5315789,41.8736842 Z" id="Shape"></path>
                <path d="M96.3157895,29.1157895 C96.6584195,29.1243579 96.9316861,29.4046313 96.9315789,29.7473684 C96.8826568,30.0538708 96.6182769,30.2793985 96.3078947,30.2793985 C95.9975125,30.2793985 95.7331327,30.0538708 95.6842105,29.7473684 C95.6842105,29.398557 95.9669781,29.1157895 96.3157895,29.1157895" id="Shape"></path>
                <path d="M89.1473684,10.8157895 C84.3157895,15.6473684 80.6210526,19.2473684 80.6210526,19.2473684 L82.1210526,20.8263158 C82.1210526,20.8263158 85.7368421,17.1473684 90.5684211,12.3 C94.4439251,8.44576537 98.0572553,4.33659141 101.384211,0 C97.066509,3.32577305 92.9782657,6.9392526 89.1473684,10.8157895" id="Shape"></path>
                <path d="M79.7842105,18.4105263 L83.3368421,14.8421053 C92.3210526,5.87368421 94.7368421,0.394736842 94.7368421,0.394736842 L78.2684211,16.8947368 L79.7842105,18.4105263 Z" id="Shape"></path>
                <path d="M86.8421053,22.4368421 L85.3421053,23.9368421 L86.8421053,25.4368421 L101.257895,11.0526316 C101.257895,11.0526316 95.7789474,13.4684211 86.8421053,22.4368421" id="Shape"></path>
                <path d="M101.257895,15.6947368 C101.257895,15.6947368 95.9684211,18.1105263 87.3157895,26.6368421 C87.591306,27.3874562 87.8284546,28.1516018 88.0263158,28.9263158 L101.257895,15.6947368 Z" id="Shape"></path>
                <path d="M86.8421053,17.7315789 L82.9894737,21.5842105 L84.5684211,23.0842105 L101.257895,6.31578947 C101.257895,6.31578947 95.7789474,8.76315789 86.8421053,17.7315789" id="Shape"></path>
                <path d="M96.3157895,30.3631579 C96.479107,30.3631579 96.6357355,30.2982803 96.7512184,30.1827973 C96.8667013,30.0673144 96.9315789,29.9106859 96.9315789,29.7473684 C96.9709248,29.5008627 96.8613887,29.2543103 96.652089,29.1182705 C96.4427894,28.9822307 96.1730001,28.9822307 95.9637004,29.1182705 C95.7544008,29.2543103 95.6448647,29.5008627 95.6842105,29.7473684 C95.6841559,29.9134588 95.7511965,30.0725285 95.8701173,30.1884762 C95.989038,30.304424 96.1497537,30.3674166 96.3157895,30.3631579" id="Shape"></path>
                <path d="M95.5421053,35.9368421 C94.380685,35.5368193 93.3081441,34.9147456 92.3842105,34.1052632 C91.5642908,33.2538938 91.1948041,32.065197 91.3876088,30.899039 C91.5804136,29.7328811 92.3128418,28.7263675 93.3631579,28.1842105 L101.163158,20.3842105 C101.163158,20.3842105 96.3,22.5789474 88.2315789,30.3315789 L88.3263158,30.8526316 L88.3263158,30.9789474 C88.7499348,32.5306365 89.5781836,33.9419289 90.7263158,35.0684211 C92.0722042,36.2177865 93.7131481,36.9671509 95.4631579,37.2315789 C95.6291937,37.2358377 95.7899094,37.172845 95.9088301,37.0568973 C96.0277509,36.9409495 96.0947915,36.7818799 96.0947368,36.6157895 C96.0947368,36.2669781 95.8119693,35.9842105 95.4631579,35.9842105" id="Shape"></path>
                <path d="M88.4210526,30.8052632 L88.3263158,30.2842105 C88.3263158,30.2842105 88.3263158,30.2842105 88.3263158,30.2842105 C88.3446501,30.4600438 88.3763203,30.6342295 88.4210526,30.8052632" id="Shape"></path>
                <path d="M97.7210526,28.5789474 L101.257895,25.0578947 C99.6295898,25.8817422 98.0809001,26.8542982 96.6315789,27.9631579 C97.0333748,28.0603092 97.3998794,28.2681775 97.6894737,28.5631579 L97.7210526,28.5789474 Z" id="Shape"></path>
                <path d="M117.536842,32.5736842 C116.794737,32.3842105 112.263158,31.5789474 108.568421,30.8526316 C104.873684,30.1263158 98.0052632,28.8789474 98.0052632,28.8789474 C98.0514757,28.9531735 98.0885848,29.032693 98.1157895,29.1157895 C98.1805592,29.3036722 98.2126033,29.5012773 98.2105263,29.7 C98.2182343,29.7787592 98.2182343,29.8580829 98.2105263,29.9368421 C98.5894737,29.9368421 114,32.3526316 114.978947,32.6210526 L115.294737,32.6210526 L114.994737,32.6210526 C114.994737,32.6210526 114.994737,32.6210526 114.836842,32.6210526 C113.1,32.5894737 97.8947368,30.7263158 97.8947368,30.7263158 C97.5600309,31.2737729 96.9571331,31.5993377 96.3157895,31.5789474 C96.0358143,31.5834972 95.7590982,31.5183875 95.5105263,31.3894737 C95.1617149,31.3894737 94.8789474,31.6722412 94.8789474,32.0210526 C94.8980565,32.1685362 94.952197,32.3093016 95.0368421,32.4315789 C96.4105263,34.8789474 99.9947368,35.5105263 101.478947,35.6684211 C101.699852,35.6798625 101.921201,35.6798625 102.142105,35.6684211 C104.921053,35.8578947 111.426316,34.4368421 113.763158,33.8842105 C115.440457,33.5371173 117.15046,33.3729994 118.863158,33.3947368 C118.831579,33.0631579 118.278947,32.7473684 117.536842,32.5736842 Z" id="Shape"></path>
                <path d="M101.052632,40.1684211 C100.152632,42.0947368 97.5631579,43.3263158 95.6210526,43.9421053 C92.0188184,45.163276 88.1472188,45.3546686 84.4421053,44.4947368 C80.0526316,43.2631579 78.2684211,42.6315789 75.2052632,42.6315789 C73.5624333,42.5904399 71.922832,42.7980518 70.3421053,43.2473684 C71.5901565,41.649971 73.0821406,40.2592287 74.7631579,39.1263158 C76.7574887,37.937126 78.8751933,36.9682761 81.0789474,36.2368421 C78.4086657,36.1800577 75.8345739,35.2293672 73.7684211,33.5368421 C74.1097766,33.2003135 74.4795731,32.8939107 74.8736842,32.6210526 C72.647841,31.6570008 70.796572,29.9941843 69.6,27.8842105 C69.9690311,27.6060368 70.3597547,27.3578745 70.7684211,27.1421053 C69.2188268,25.1677151 68.3147118,22.7640924 68.1789474,20.2578947 L68.1789474,50.0842105 L101.336868,50.0842105 L101.336842,38.7157895 C101.338874,39.2208103 101.219753,39.718953 100.989474,40.1684211" id="Shape"></path>
                <path d="M84.7894737,0.252631579 L84.7894737,8.41578947 L76.4526316,0.315789474 L76.3736842,8.54210526 L67.8947368,0.252631579 C67.8947368,0.252631579 67.8947368,0.694736842 68.1315789,1.46842105 C69.2544403,6.07515604 71.619142,10.285745 74.9684211,13.6421053 L77.3684211,16.0263158 L87.9631579,5.41578947 L87.9631579,0.252631579 L84.7894737,0.252631579 Z" id="Shape"></path>
            </g>
            <g id="logo-hudsonsBay_med" transform="translate(0.000000, 115.000000)">
                <path d="M2.34950495,32.1653465 C2.30815837,31.845642 2.41746355,31.5248445 2.64541146,31.2968966 C2.87335938,31.0689487 3.19415689,30.9596435 3.51386139,31.0009901 L4.90693069,31.0009901 C5.22663519,30.9596435 5.5474327,31.0689487 5.77538062,31.2968966 C6.00332853,31.5248445 6.11263371,31.845642 6.07128713,32.1653465 L6.07128713,37.0722772 L11.5811881,37.0722772 L11.5811881,32.1653465 C11.5383617,31.8415145 11.6502288,31.5163839 11.8832413,31.2874594 C12.1162538,31.0585348 12.4433133,30.9524393 12.7663366,31.0009901 L14.1386139,31.0009901 C14.4583184,30.9596435 14.7791159,31.0689487 15.0070638,31.2968966 C15.2350117,31.5248445 15.3443169,31.845642 15.3029703,32.1653465 L15.3029703,45.0148515 C15.3443169,45.334556 15.2350117,45.6553535 15.0070638,45.8833014 C14.7791159,46.1112493 14.4583184,46.2205545 14.1386139,46.1792079 L12.7663366,46.1792079 C12.4451657,46.2190947 12.1233624,46.1101279 11.8924994,45.8833152 C11.6616365,45.6565025 11.5469915,45.336678 11.5811881,45.0148515 L11.5811881,40.2326733 L6.07128713,40.2326733 L6.07128713,45.0148515 C6.11263371,45.334556 6.00332853,45.6553535 5.77538062,45.8833014 C5.5474327,46.1112493 5.22663519,46.2205545 4.90693069,46.1792079 L3.51386139,46.1792079 C3.19607159,46.2122442 2.88032624,46.1002312 2.65440396,45.8743089 C2.42848168,45.6483866 2.31646864,45.3326413 2.34950495,45.0148515 L2.34950495,32.1653465 Z" id="Shape"></path>
                <path d="M25.3871287,30.7514851 C27.4736516,30.6770237 29.4991247,31.463103 30.9891544,32.9256124 C32.4791842,34.3881218 33.302882,36.3985902 33.2673267,38.4861386 C33.3375135,40.6133811 32.523269,42.6746429 31.0182629,44.179649 C29.5132568,45.6846551 27.4519949,46.4988996 25.3247525,46.4287129 C23.19751,46.4988996 21.1362481,45.6846551 19.6312421,44.179649 C18.126236,42.6746429 17.3119915,40.6133811 17.3821782,38.4861386 C17.3384654,36.374066 18.1770759,34.3393531 19.6962853,32.8714416 C21.2154948,31.4035302 23.2778024,30.6352781 25.3871287,30.7514851 Z M25.3871287,43.039604 C26.5619961,43.0449188 27.6842873,42.5530011 28.4765664,41.6854555 C29.2688455,40.8179099 29.6571701,39.6557032 29.5455446,38.4861386 C29.8317798,36.8522084 29.1195603,35.2044536 27.7333054,34.2934345 C26.3470505,33.3824153 24.5519594,33.3824153 23.1657045,34.2934345 C21.7794496,35.2044536 21.0672301,36.8522084 21.3534653,38.4861386 C21.2435171,39.6343046 21.6153856,40.7765591 22.3802057,41.6399385 C23.1450258,42.5033179 24.2340839,43.0102537 25.3871287,43.039604 Z" id="Shape"></path>
                <path d="M35.4712871,32.1653465 C35.4299405,31.845642 35.5392457,31.5248445 35.7671936,31.2968966 C35.9951416,31.0689487 36.3159391,30.9596435 36.6356436,31.0009901 L41.0435644,31.0009901 C44.0792079,31.0009901 46.2,32.3524752 46.2,34.9722772 C46.228056,36.279648 45.5641123,37.5047823 44.4534653,38.1950495 C45.9166677,38.6620073 46.8871019,40.0495579 46.8237624,41.5841584 C46.8237624,44.9108911 44.0584158,46.1168317 41.0435644,46.1168317 L36.6356436,46.1168317 C36.3159391,46.1581783 35.9951416,46.0488731 35.7671936,45.8209252 C35.5392457,45.5929773 35.4299405,45.2721797 35.4712871,44.9524752 L35.4712871,32.1653465 Z M41.0851485,36.8851485 C41.4585082,36.8982051 41.819678,36.7512212 42.0778202,36.4811648 C42.3359624,36.2111083 42.4665117,35.8436783 42.4366337,35.4712871 C42.4522861,35.1023138 42.3036547,34.7453679 42.0307545,34.4965471 C41.7578543,34.2477263 41.3887352,34.1326057 41.0227723,34.1821782 L39.1722772,34.1821782 L39.1722772,36.8851485 L41.0851485,36.8851485 Z M41.4178218,42.9980198 C41.8512731,43.0293283 42.2769371,42.8707348 42.584232,42.5634399 C42.8915269,42.2561451 43.0501203,41.830481 43.0188119,41.3970297 C43.052023,40.9722035 42.894665,40.554598 42.5893605,40.2573279 C42.2840561,39.9600578 41.8624036,39.8138899 41.4386139,39.8584158 L39.1722772,39.8584158 L39.1722772,42.9980198 L41.4178218,42.9980198 Z" id="Shape"></path>
                <path d="M48.4247525,43.309901 L49.090099,42.3534653 C49.5059406,41.750495 50.0049505,41.6881188 50.7118812,42.0831683 C51.5258676,42.6363432 52.4740563,42.9595894 53.4564356,43.0188119 C54.5584158,43.0188119 55.0782178,42.5405941 55.0782178,41.9584158 C55.0782178,39.8792079 48.3623762,40.149505 48.3623762,35.3881188 C48.4168842,34.0344774 49.0333115,32.7648583 50.0632972,31.8848323 C51.0932828,31.0048062 52.4435468,30.5940722 53.7891089,30.7514851 C55.2533159,30.7267215 56.6947576,31.1159107 57.9475248,31.8742574 C58.2087608,32.0327578 58.3941133,32.2908834 58.4608138,32.5890741 C58.5275144,32.8872648 58.4698008,33.1997604 58.3009901,33.4544554 L57.8019802,34.4524752 C57.3653465,35.2841584 56.8039604,35.1594059 56.2009901,34.8683168 C55.4766221,34.4341357 54.6539101,34.1908991 53.809901,34.1613861 C52.6247525,34.1613861 52.1465347,34.639604 52.1465347,35.2217822 C52.1465347,37.4257426 58.8623762,36.9059406 58.8623762,41.6881188 C58.8468534,43.0483238 58.2577432,44.3387483 57.2401738,45.2414948 C56.2226044,46.1442412 54.871175,46.5753848 53.5188119,46.4287129 C51.8032805,46.4268293 50.1286319,45.9048609 48.7158416,44.9316832 C48.4293917,44.7831505 48.2281488,44.5100289 48.1711448,44.1924348 C48.1141407,43.8748407 48.2078382,43.548781 48.4247525,43.309901 Z" id="Shape"></path>
                <path d="M68.1148515,30.7514851 C70.21013,30.6591224 72.2502152,31.4379753 73.7508578,32.9031696 C75.2515005,34.368364 76.0788909,36.3892511 76.0366337,38.4861386 C76.1867334,41.4169304 74.7085537,44.19167 72.1924831,45.7021199 C69.6764125,47.2125698 66.5324984,47.2125698 64.0164278,45.7021199 C61.5003572,44.19167 60.0221775,41.4169304 60.1722772,38.4861386 C60.1296818,36.3854711 60.9598795,34.3611503 62.4651529,32.8952819 C63.9704264,31.4294135 66.0160525,30.6531939 68.1148515,30.7514851 Z M68.1148515,43.039604 C69.2897188,43.0449188 70.41201,42.5530011 71.2042891,41.6854555 C71.9965682,40.8179099 72.3848929,39.6557032 72.2732673,38.4861386 C72.5595026,36.8522084 71.8472831,35.2044536 70.4610282,34.2934345 C69.0747733,33.3824153 67.2796821,33.3824153 65.8934272,34.2934345 C64.5071723,35.2044536 63.7949528,36.8522084 64.0811881,38.4861386 C63.9712399,39.6343046 64.3431084,40.7765591 65.1079285,41.6399385 C65.8727486,42.5033179 66.9618067,43.0102537 68.1148515,43.039604 Z" id="Shape"></path>
                <path d="M78.1782178,32.1653465 C78.1353914,31.8415145 78.2472585,31.5163839 78.480271,31.2874594 C78.7132835,31.0585348 79.040343,30.9524393 79.3633663,31.0009901 L81.0891089,31.0009901 C81.6769439,30.9535868 82.2352816,31.2655991 82.5029703,31.7910891 L86.2247525,38.0287129 C86.7000071,38.8645783 87.1303218,39.7252077 87.5138614,40.6069307 C87.5138614,40.6069307 87.3267327,39.0475248 87.3267327,38.0910891 L87.3267327,32.1653465 C87.2839062,31.8415145 87.3957734,31.5163839 87.6287859,31.2874594 C87.8617984,31.0585348 88.1888578,30.9524393 88.5118812,31.0009901 L89.8841584,31.0009901 C90.2038629,30.9596435 90.5246604,31.0689487 90.7526083,31.2968966 C90.9805563,31.5248445 91.0898614,31.845642 91.0485149,32.1653465 L91.0485149,45.0148515 C91.0898614,45.334556 90.9805563,45.6553535 90.7526083,45.8833014 C90.5246604,46.1112493 90.2038629,46.2205545 89.8841584,46.1792079 L88.2207921,46.1792079 C87.6449554,46.2207181 87.1017254,45.9079493 86.8485149,45.3891089 L83.0851485,39.1514851 C82.5029703,38.1534653 81.8168317,36.5524752 81.8168317,36.5524752 C81.8168317,36.5524752 81.9831683,38.1950495 81.9831683,39.1514851 L81.9831683,45.0564356 C82.0245149,45.3761401 81.9152097,45.6969377 81.6872618,45.9248856 C81.4593139,46.1528335 81.1385164,46.2621387 80.8188119,46.2207921 L79.4465347,46.2207921 C79.1253637,46.2606789 78.8035604,46.1517121 78.5726975,45.9248993 C78.3418345,45.6980866 78.2271896,45.3782622 78.2613861,45.0564356 L78.1782178,32.1653465 Z" id="Shape"></path>
                <path d="M93.439604,43.309901 L94.1049505,42.3534653 C94.5207921,41.750495 95.019802,41.6881188 95.7267327,42.0831683 C96.5407191,42.6363432 97.4889078,42.9595894 98.4712871,43.0188119 C99.5732673,43.0188119 100.093069,42.5405941 100.093069,41.9584158 C100.093069,39.8792079 93.3772277,40.149505 93.3772277,35.3881188 C93.4317357,34.0344774 94.048163,32.7648583 95.0781487,31.8848323 C96.1081343,31.0048062 97.4583983,30.5940722 98.8039604,30.7514851 C100.268167,30.7267215 101.709609,31.1159107 102.962376,31.8742574 C103.223612,32.0327578 103.408965,32.2908834 103.475665,32.5890741 C103.542366,32.8872648 103.484652,33.1997604 103.315842,33.4544554 L102.816832,34.4524752 C102.380198,35.2841584 101.818812,35.1594059 101.215842,34.8683168 C100.491474,34.4341357 99.6687616,34.1908991 98.8247525,34.1613861 C97.639604,34.1613861 97.1613861,34.639604 97.1613861,35.2217822 C97.1613861,37.4257426 103.877228,36.9059406 103.877228,41.6881188 C103.861705,43.0483238 103.272595,44.3387483 102.255025,45.2414948 C101.237456,46.1442412 99.8860265,46.5753848 98.5336634,46.4287129 C96.818132,46.4268293 95.1434834,45.9048609 93.7306931,44.9316832 C93.4442432,44.7831505 93.2430003,44.5100289 93.1859963,44.1924348 C93.1289922,43.8748407 93.2226897,43.548781 93.439604,43.309901 Z" id="Shape"></path>
                <path d="M2.34950495,53.3316832 C2.30815837,53.0119787 2.41746355,52.6911812 2.64541146,52.4632332 C2.87335938,52.2352853 3.19415689,52.1259802 3.51386139,52.1673267 L7.94257426,52.1673267 C10.9782178,52.1673267 13.0990099,53.5188119 13.0990099,56.1386139 C13.1184571,57.4491213 12.4471578,58.6732552 11.3316832,59.3613861 C12.8071863,59.8241572 13.7823361,61.2270043 13.7019802,62.7712871 C13.7019802,66.0980198 10.9574257,67.3039604 7.94257426,67.3039604 L3.51386139,67.3039604 C3.19607159,67.3369967 2.88032624,67.2249837 2.65440396,66.9990614 C2.42848168,66.7731391 2.31646864,66.4573938 2.34950495,66.139604 L2.34950495,53.3316832 Z M7.98415842,58.0514851 C8.35597272,58.0652586 8.71560532,57.9177104 8.9706085,57.6467696 C9.22561169,57.3758287 9.35111322,57.0079218 9.31485149,56.6376238 C9.33703614,56.2705955 9.19341443,55.9129707 8.92353763,55.6632339 C8.65366083,55.4134972 8.28599218,55.2979876 7.92178218,55.3485149 L6.07128713,55.3485149 L6.07128713,58.0514851 L7.98415842,58.0514851 Z M8.31683168,64.1643564 C8.75194293,64.1949477 9.17918471,64.0368693 9.48959771,63.730436 C9.80001071,63.4240027 9.96358849,62.9988361 9.93861386,62.5633663 C9.96621709,62.1324932 9.801095,61.7116041 9.4878714,61.4144433 C9.1746478,61.1172824 8.74565665,60.9745256 8.31683168,61.0247525 L6.07128713,61.0247525 L6.07128713,64.1643564 L8.31683168,64.1643564 Z" id="Shape"></path>
                <path d="M19.0247525,53.1237624 C19.1582809,52.5206076 19.7194828,52.1108411 20.3346535,52.1673267 L22.2475248,52.1673267 C22.8601063,52.1200809 23.4158848,52.5258874 23.5574257,53.1237624 L27.9445545,66.0148515 C28.2356436,66.8049505 27.9445545,67.3455446 26.9881188,67.3455446 L25.5950495,67.3455446 C24.9761319,67.3909484 24.4179445,66.9745229 24.2851485,66.3683168 L23.6405941,64.1643564 L18.9,64.1643564 L18.2762376,66.3683168 C18.1525955,66.9713662 17.6011592,67.3893905 16.9871287,67.3455446 L15.5732673,67.3455446 C15.2204239,67.4320818 14.849809,67.3016358 14.6289549,67.0131733 C14.4081008,66.7247108 14.378862,66.3328988 14.5544554,66.0148515 L19.0247525,53.1237624 Z M22.8712871,61.1910891 L21.9148515,58.2178218 C21.6445545,57.2613861 21.3118812,55.5980198 21.3118812,55.5980198 C21.3118812,55.5980198 20.9584158,57.2613861 20.6881188,58.2178218 L19.8148515,61.170297 L22.8712871,61.1910891 Z" id="Shape"></path>
                <path d="M31.749505,61.1287129 L27.5910891,53.560396 C27.1128713,52.749505 27.4871287,52.1673267 28.4019802,52.1673267 L30.0653465,52.1673267 C30.6645877,52.1267432 31.2205914,52.4805638 31.4376238,53.0405941 L32.7475248,55.8059406 C33.2257426,56.8663366 33.6623762,58.009901 33.6623762,58.009901 C33.6623762,58.009901 34.0782178,56.8663366 34.5772277,55.8059406 L35.8663366,53.0405941 C36.0755855,52.4838227 36.6242447,52.1293045 37.2178218,52.1673267 L38.9019802,52.1673267 C39.8168317,52.1673267 40.170297,52.749505 39.7128713,53.560396 L35.5544554,61.1287129 L35.5544554,66.1811881 C35.5874918,66.4989779 35.4754787,66.8147233 35.2495564,67.0406455 C35.0236342,67.2665678 34.7078888,67.3785809 34.390099,67.3455446 L32.9970297,67.3455446 C32.6773252,67.3868911 32.3565277,67.277586 32.1285798,67.049638 C31.9006319,66.8216901 31.7913267,66.5008926 31.8326733,66.1811881 L31.749505,61.1287129 Z" id="Shape"></path>
                <path d="M53.8514851,52.229703 C55.6745085,52.1793251 57.4590836,52.7594956 58.9039604,53.8722772 C58.9755685,53.9354296 59.016591,54.0263048 59.016591,54.1217822 C59.016591,54.2172596 58.9755685,54.3081348 58.9039604,54.3712871 L58.8,54.4960396 C58.7330788,54.5686429 58.6388395,54.6099445 58.540099,54.6099445 C58.4413585,54.6099445 58.3471192,54.5686429 58.280198,54.4960396 C56.9836624,53.5640655 55.4274334,53.0622908 53.8306931,53.0613861 C52.0696402,53.0359446 50.3768274,53.7416361 49.1553117,55.0104363 C47.9337959,56.2792365 47.2928739,57.9976178 47.3851485,59.7564356 C47.2763155,61.551722 47.9129294,63.3123842 49.1447545,64.6229202 C50.3765796,65.9334562 52.0944888,66.6777658 53.8930693,66.680198 C55.6357113,66.6733265 57.3207047,66.0552503 58.6544554,64.9336634 C58.7122391,64.8465513 58.8098219,64.794181 58.9143564,64.794181 C59.018891,64.794181 59.1164738,64.8465513 59.1742574,64.9336634 C59.2458655,64.9968157 59.286888,65.0876909 59.286888,65.1831683 C59.286888,65.2786457 59.2458655,65.3695209 59.1742574,65.4326733 C57.7130268,66.7651956 55.8082623,67.5063491 53.8306931,67.5118812 C51.7863552,67.5320287 49.8247224,66.7057395 48.4109354,65.2289424 C46.9971483,63.7521453 46.2571241,61.7563696 46.3663366,59.7148515 C46.302106,57.7106656 47.0700728,55.7692411 48.4879738,54.3513401 C49.9058748,52.9334391 51.8472993,52.1654724 53.8514851,52.229703 Z" id="Shape"></path>
                <path d="M62.6465347,52.8534653 C62.6326182,52.750565 62.6675472,52.6470683 62.7409712,52.5736444 C62.8143951,52.5002205 62.9178918,52.4652915 63.0207921,52.4792079 L63.2079208,52.4792079 C63.4366337,52.4792079 63.5613861,52.6039604 63.5613861,52.8534653 L63.5613861,66.9712871 C63.5613861,67.2207921 63.4366337,67.3455446 63.2079208,67.3455446 L63.0207921,67.3455446 C62.9178918,67.359461 62.8143951,67.324532 62.7409712,67.2511081 C62.6675472,67.1776841 62.6326182,67.0741874 62.6465347,66.9712871 L62.6465347,52.8534653 Z" id="Shape"></path>
                <path d="M71.4623762,53.3316832 L66.2851485,53.3316832 C66.1862276,53.3443993 66.0868201,53.3120632 66.0143115,53.2435828 C65.9418029,53.1751025 65.9038437,53.0777034 65.9108911,52.9782178 L65.9108911,52.8534653 C65.8969747,52.750565 65.9319037,52.6470683 66.0053276,52.5736444 C66.0787515,52.5002205 66.1822482,52.4652915 66.2851485,52.4792079 L77.5544554,52.4792079 C77.7831683,52.4792079 77.9079208,52.6039604 77.9079208,52.8534653 L77.9079208,52.9782178 C77.9220653,53.0756173 77.8894047,53.1739786 77.8198105,53.2435728 C77.7502162,53.3131671 77.6518549,53.3458277 77.5544554,53.3316832 L72.3772277,53.3316832 L72.3772277,66.9712871 C72.3911441,67.0741874 72.3562151,67.1776841 72.2827912,67.2511081 C72.2093673,67.324532 72.1058706,67.359461 72.0029703,67.3455446 L71.8158416,67.3455446 C71.5871287,67.3455446 71.4623762,67.2207921 71.4623762,66.9712871 L71.4623762,53.3316832 Z" id="Shape"></path>
                <path d="M83.3554455,60.8792079 L78.5524752,52.9158416 C78.4069307,52.6663366 78.5524752,52.4792079 78.8019802,52.4792079 L79.009901,52.4792079 C79.1855685,52.4732259 79.3514281,52.5601047 79.4465347,52.7079208 L82.8148515,58.3425743 C83.2306931,59.070297 83.729703,60.0267327 83.729703,60.0267327 C83.729703,60.0267327 84.1871287,59.070297 84.6445545,58.3425743 L88.0128713,52.7079208 C88.1079779,52.5601047 88.2738374,52.4732259 88.449505,52.4792079 L88.6990099,52.4792079 C88.990099,52.4792079 89.0940594,52.6663366 88.9485149,52.9158416 L84.1663366,60.8792079 L84.1663366,66.9712871 C84.1663366,67.2207921 84.0415842,67.3455446 83.8128713,67.3455446 L83.6257426,67.3455446 C83.3970297,67.3455446 83.2722772,67.2207921 83.2722772,66.9712871 L83.3554455,60.8792079 Z" id="Shape"></path>
                <path d="M9.43960396,73.3960396 C11.28083,73.3286524 13.088456,73.901802 14.5544554,75.0178218 C14.6944046,75.1628296 14.6944046,75.3926159 14.5544554,75.5376238 L14.5544554,75.6623762 C14.4913031,75.7339843 14.4004279,75.7750068 14.3049505,75.7750068 C14.2094731,75.7750068 14.1185979,75.7339843 14.0554455,75.6623762 C12.7525034,74.7275246 11.18877,74.2256753 9.58514851,74.2277228 C7.79859414,74.172005 6.07100227,74.8703589 4.82502831,76.1519321 C3.57905435,77.4335053 2.9296324,79.1800799 3.03564356,80.9643564 C2.92701163,82.7560467 3.56084369,84.5134275 4.78811204,85.8233004 C6.01538039,87.1331734 7.72781032,87.879976 9.52277228,87.8881188 C11.2761459,87.8857036 12.9713991,87.2591969 14.3049505,86.1207921 C14.3718717,86.0481888 14.466111,86.0068872 14.5648515,86.0068872 C14.663592,86.0068872 14.7578313,86.0481888 14.8247525,86.1207921 L14.8247525,86.2455446 C14.8963605,86.3086969 14.9373831,86.3995721 14.9373831,86.4950495 C14.9373831,86.5905269 14.8963605,86.6814021 14.8247525,86.7445545 C13.3539733,88.0750301 11.4436479,88.8154662 9.46039604,88.8237624 C7.41899566,88.8219299 5.46898116,87.9770999 4.07147397,86.48905 C2.67396678,85.0010001 1.95305309,83.0018558 2.07920792,80.9643564 C1.98692036,78.966522 2.72565834,77.0195918 4.12001563,75.5858459 C5.51437293,74.1521 7.43997421,73.359427 9.43960396,73.3960396 Z" id="Shape"></path>
                <path d="M24.4514851,73.3960396 C26.4599888,73.3731452 28.3920267,74.1652168 29.8064562,75.5914006 C31.2208857,77.0175843 31.9969412,78.956111 31.9574257,80.9643564 C31.9574257,85.109773 28.5969017,88.470297 24.4514851,88.470297 C20.3060686,88.470297 16.9455446,85.109773 16.9455446,80.9643564 C16.9060291,78.956111 17.6820846,77.0175843 19.0965141,75.5914006 C20.5109436,74.1652168 22.4429815,73.3731452 24.4514851,73.3960396 Z M24.4514851,87.950495 C26.2515168,87.9414337 27.969527,87.1965677 29.2065242,85.8888849 C30.4435214,84.5812022 31.0918674,82.8244917 31.0009901,81.0267327 C31.1379496,78.5949773 29.9184556,76.2869789 27.8323644,75.0298331 C25.7462732,73.7726873 23.135905,73.7726873 21.0498138,75.0298331 C18.9637226,76.2869789 17.7442286,78.5949773 17.8811881,81.0267327 C17.813595,82.8159352 18.4745178,84.5560563 19.712849,85.8492503 C20.9511801,87.1424442 22.6610341,87.8781343 24.4514851,87.8881188 L24.4514851,87.950495 Z" id="Shape"></path>
                <path d="M35.1386139,73.9990099 C35.1315665,73.8995243 35.1695257,73.8021252 35.2420343,73.7336449 C35.3145429,73.6651646 35.4139503,73.6328284 35.5128713,73.6455446 L35.7,73.6455446 C35.7973995,73.6314 35.8957608,73.6640606 35.965355,73.7336549 C36.0349493,73.8032491 36.0676099,73.9016104 36.0534653,73.9990099 L36.0534653,83.3762376 C35.9756541,84.6173174 36.4437028,85.8304922 37.3349094,86.6977202 C38.2261161,87.5649482 39.4516024,87.9997425 40.690099,87.8881188 C41.9345206,87.9939662 43.163158,87.5513902 44.0542298,86.6763017 C44.9453016,85.8012133 45.4100411,84.5807869 45.3267327,83.3346535 L45.3267327,73.9990099 C45.3196853,73.8995243 45.3576445,73.8021252 45.4301531,73.7336449 C45.5026617,73.6651646 45.6020692,73.6328284 45.7009901,73.6455446 L45.8881188,73.6455446 C45.9855183,73.6314 46.0838796,73.6640606 46.1534738,73.7336549 C46.2230681,73.8032491 46.2557287,73.9016104 46.2415842,73.9990099 L46.2415842,83.4178218 C46.3055834,84.8869204 45.736767,86.3129798 44.6792355,87.3347301 C43.621704,88.3564805 42.1769179,88.8758943 40.7108911,88.7613861 C39.2413331,88.8747621 37.7931161,88.3563953 36.7292902,87.3362339 C35.6654643,86.3160725 35.0868919,84.890839 35.1386139,83.4178218 L35.1386139,73.9990099 Z" id="Shape"></path>
                <path d="M50.4831683,73.9990099 C50.4761209,73.8995243 50.5140801,73.8021252 50.5865887,73.7336449 C50.6590973,73.6651646 50.7585048,73.6328284 50.8574257,73.6455446 L51.0653465,73.6455446 C51.2410141,73.6395625 51.4068736,73.7264413 51.5019802,73.8742574 L59.8188119,85.309901 C60.2970297,85.9752475 61.0247525,87.160396 61.0247525,87.160396 C61.0247525,87.160396 60.9207921,86.0376238 60.9207921,85.309901 L60.9207921,73.9990099 C60.9066476,73.9016104 60.9393081,73.8032491 61.0089024,73.7336549 C61.0784967,73.6640606 61.176858,73.6314 61.2742574,73.6455446 L61.4613861,73.6455446 C61.5603071,73.6328284 61.6597146,73.6651646 61.7322232,73.7336449 C61.8047318,73.8021252 61.842691,73.8995243 61.8356436,73.9990099 L61.8356436,88.1376238 C61.84956,88.2405241 61.814631,88.3440208 61.7412071,88.4174447 C61.6677831,88.4908686 61.5642865,88.5257976 61.4613861,88.5118812 L61.2534653,88.5118812 C61.0777978,88.5178633 60.9119383,88.4309844 60.8168317,88.2831683 L52.5,76.8475248 C52.0217822,76.1821782 51.2940594,74.9762376 51.2940594,74.9762376 C51.2940594,74.9762376 51.2940594,76.119802 51.2940594,76.8475248 L51.2940594,88.1376238 C51.2940594,88.3871287 51.1693069,88.5118812 50.9405941,88.5118812 L50.7534653,88.5118812 C50.650565,88.5257976 50.5470683,88.4908686 50.4736444,88.4174447 C50.4002205,88.3440208 50.3652915,88.2405241 50.3792079,88.1376238 L50.4831683,73.9990099 Z" id="Shape"></path>
                <path d="M72.6475248,73.3960396 C74.467088,73.3464719 76.2492123,73.9185118 77.7,75.0178218 C77.8399492,75.1628296 77.8399492,75.3926159 77.7,75.5376238 L77.7,75.6623762 C77.6368476,75.7339843 77.5459725,75.7750068 77.450495,75.7750068 C77.3550176,75.7750068 77.2641425,75.7339843 77.2009901,75.6623762 C75.9028322,74.7542549 74.3565425,74.2678633 72.7722772,74.2693069 C71.0129187,74.243485 69.321919,74.9497948 68.1036222,76.2193468 C66.8853254,77.4888988 66.2492621,79.2075543 66.3475248,80.9643564 C66.2332909,82.7468499 66.8566945,84.4979468 68.0716299,85.807246 C69.2865652,87.1165452 70.98623,87.8689493 72.7722772,87.8881188 C74.5256508,87.8857036 76.2209041,87.2591969 77.5544554,86.1207921 C77.6176078,86.049184 77.708483,86.0081615 77.8039604,86.0081615 C77.8994378,86.0081615 77.990313,86.049184 78.0534653,86.1207921 L78.0534653,86.2455446 C78.1319989,86.3044447 78.1782178,86.3968826 78.1782178,86.4950495 C78.1782178,86.5932164 78.1319989,86.6856543 78.0534653,86.7445545 C76.5943859,88.0805407 74.688226,88.8222372 72.709901,88.8237624 C70.6691606,88.8381388 68.7130285,88.0093214 67.3038182,86.5331932 C65.8946078,85.0570651 65.1573674,83.0646124 65.2663366,81.0267327 C65.1558471,79.0146871 65.889405,77.0477076 67.2904041,75.5993508 C68.6914031,74.1509941 70.6329187,73.352475 72.6475248,73.3960396 Z" id="Shape"></path>
                <path d="M81.4633663,73.9990099 C81.4492218,73.9016104 81.4818824,73.8032491 81.5514767,73.7336549 C81.6210709,73.6640606 81.7194322,73.6314 81.8168317,73.6455446 L82.0039604,73.6455446 C82.1028813,73.6328284 82.2022888,73.6651646 82.2747974,73.7336449 C82.347306,73.8021252 82.3852652,73.8995243 82.3782178,73.9990099 L82.3782178,88.1376238 C82.3921342,88.2405241 82.3572052,88.3440208 82.2837813,88.4174447 C82.2103574,88.4908686 82.1068607,88.5257976 82.0039604,88.5118812 L81.8168317,88.5118812 C81.5881188,88.5118812 81.4633663,88.3871287 81.4633663,88.1376238 L81.4633663,73.9990099 Z" id="Shape"></path>
                <path d="M86.8277228,73.9990099 C86.8135783,73.9016104 86.8462388,73.8032491 86.9158331,73.7336549 C86.9854274,73.6640606 87.0837887,73.6314 87.1811881,73.6455446 L87.3267327,73.6455446 C87.5762376,73.6455446 87.7009901,73.770297 87.7009901,73.9990099 L87.7009901,87.6594059 L94.4168317,87.6594059 C94.6663366,87.6594059 94.7910891,87.7841584 94.7910891,88.0128713 L94.7910891,88.1376238 C94.8050055,88.2405241 94.7700765,88.3440208 94.6966526,88.4174447 C94.6232287,88.4908686 94.519732,88.5257976 94.4168317,88.5118812 L87.139604,88.5118812 C86.9108911,88.5118812 86.7861386,88.3871287 86.7861386,88.1376238 L86.8277228,73.9990099 Z" id="Shape"></path>
                <path d="M169.559406,51.460396 C170.0172,51.451994 170.434235,51.7224205 170.613329,52.1438132 C170.792423,52.565206 170.697693,53.053135 170.373929,53.3768992 C170.050165,53.7006633 169.562236,53.7953934 169.140843,53.6162995 C168.71945,53.4372056 168.449024,53.0201708 168.457426,52.5623762 C168.46851,51.9584203 168.95545,51.4714806 169.559406,51.460396" id="Shape"></path>
                <path d="M156.855446,19.1079208 C148.309901,27.6534653 141.80198,34.0366337 141.80198,34.0366337 L144.442574,36.6772277 C144.442574,36.6772277 150.80495,30.1485149 159.350495,21.6029703 C166.205653,14.8406887 172.596423,7.62328572 178.479208,1.0658141e-14 C170.848998,5.87482489 163.624611,12.258682 156.855446,19.1079208" id="Shape"></path>
                <path d="M140.30495,32.5188119 L146.542574,26.2811881 C162.448515,10.3960396 166.814851,0.686138614 166.814851,0.686138614 L137.705941,29.7950495 L140.30495,32.5188119 Z" id="Shape"></path>
                <path d="M152.717822,39.6712871 C151.158416,41.209901 150.077228,42.3118812 150.077228,42.3118812 L152.738614,44.9732673 L178.250495,19.4405941 C178.250495,19.4405941 168.582178,23.8069307 152.717822,39.6712871" id="Shape"></path>
                <path d="M178.250495,27.7574257 C178.250495,27.7574257 168.894059,31.9158416 153.611881,47.0732673 C154.102226,48.4006947 154.518705,49.754251 154.859406,51.1277228 L178.250495,27.7574257 Z" id="Shape"></path>
                <path d="M152.717822,31.3544554 L145.918812,38.1534653 L148.580198,40.8148515 L178.250495,11.1237624 C178.250495,11.1237624 168.582178,15.490099 152.717822,31.3544554" id="Shape"></path>
                <path d="M169.559406,53.6851485 C170.015322,53.6935928 170.431064,53.4254571 170.611418,53.0066453 C170.791771,52.5878335 170.700912,52.1015389 170.381503,51.776103 C170.062093,51.4506671 169.577582,51.3507348 169.155473,51.5232296 C168.733363,51.6957245 168.457504,52.1063819 168.457426,52.5623762 C168.457321,53.1744364 168.947451,53.6738141 169.559406,53.6851485" id="Shape"></path>
                <path d="M168.145545,63.519802 C166.110714,62.8137527 164.232375,61.7192319 162.614851,60.2970297 C161.177893,58.8090993 160.522805,56.7328863 160.845627,54.6897091 C161.168449,52.6465319 162.43173,50.8734211 164.257426,49.9009901 L164.382178,49.9009901 L178.167327,36.1158416 C178.167327,36.1158416 169.580198,39.9831683 155.29604,53.7059406 L155.483168,54.6207921 L155.483168,54.8287129 C156.20373,57.5724912 157.638576,60.0762968 159.641584,62.0851485 C162.003863,64.1056794 164.885063,65.4238287 167.958416,65.890099 C168.254265,65.8956821 168.539929,65.7820503 168.751109,65.5747807 C168.96229,65.3675111 169.081241,65.0840205 169.081188,64.7881188 C169.069854,64.1761636 168.570476,63.6860337 167.958416,63.6861386" id="Shape"></path>
                <path d="M155.587129,54.4544554 L155.4,53.539604 C155.430567,53.8502058 155.493279,54.1567979 155.587129,54.4544554" id="Shape"></path>
                <path d="M172.012871,50.5247525 L178.250495,44.2871287 C175.385304,45.7513942 172.657501,47.4701884 170.1,49.4227723 C170.813834,49.5980154 171.462945,49.9730575 171.971287,50.5039604 L172.012871,50.5247525 Z" id="Shape"></path>
                <path d="M207.047525,57.5732673 C205.737624,57.2405941 197.691089,55.8267327 191.183168,54.5168317 C184.675248,53.2069307 172.470297,51.0445545 172.470297,51.0445545 C172.541421,51.1861922 172.603912,51.3320031 172.657426,51.4811881 C172.773287,51.8087592 172.836449,52.152637 172.844554,52.5 C172.856063,52.6453171 172.856063,52.7913166 172.844554,52.9366337 C173.509901,53.0405941 200.747525,57.1990099 202.494059,57.6772277 L203.034653,57.5732673 L202.494059,57.6772277 C202.494059,57.6772277 202.494059,57.6772277 202.223762,57.6772277 C199.229703,57.5108911 172.30396,54.2049505 172.30396,54.2049505 C171.715338,55.1406906 170.685668,55.7066159 169.580198,55.7019802 C169.089993,55.6979688 168.606899,55.5842998 168.166337,55.3693069 L168.062376,55.3693069 C167.450421,55.3806414 166.960291,55.8800191 166.960396,56.4920792 C166.98578,56.7575128 167.086809,57.0100852 167.251485,57.219802 C169.663366,61.5445545 176.00495,62.6465347 178.624752,62.9376238 C179.012617,62.9575039 179.401245,62.9575039 179.789109,62.9376238 C184.69604,63.270297 196.194059,60.8584158 200.331683,59.7980198 C203.292266,59.1822356 206.310915,58.8894337 209.334653,58.9247525 C209.313861,58.4257426 208.336634,57.8851485 207.047525,57.5732673 Z" id="Shape"></path>
                <path d="M177.876238,71.0049505 C176.275248,74.3940594 171.638614,76.5980198 168.270297,77.6584158 C161.89973,79.8239526 155.05008,80.1624736 148.49703,78.6356436 C140.783168,76.5564356 137.643564,75.2673267 132.19604,75.2673267 C129.302469,75.1948462 126.414522,75.5593443 123.629703,76.3485149 C125.837717,73.5276449 128.475934,71.0718574 131.447525,69.0712871 C134.976266,66.9645982 138.727951,65.2561171 142.633663,63.9772277 C137.909538,63.87294 133.356469,62.189329 129.70099,59.1950495 C130.304953,58.5996192 130.958831,58.0570402 131.655446,57.5732673 C127.725926,55.8837045 124.450224,52.9654846 122.319802,49.2564356 C122.975795,48.7696278 123.671279,48.3384278 124.39901,47.9673267 C121.673043,44.4739213 120.083793,40.2286653 119.845545,35.8039604 L119.845545,88.5118812 L178.479208,88.5118812 L178.479208,68.4267327 C178.474536,69.3205327 178.268437,70.2017818 177.876238,71.0049505" id="Shape"></path>
                <path d="M149.141584,0.436633663 L149.141584,14.9910891 L134.4,0.561386139 L134.275248,15.1158416 L119.388119,0.561386139 C119.388119,0.561386139 119.388119,1.35148515 119.80396,2.64059406 C121.801047,10.7659422 125.977848,18.1921654 131.884158,24.1188119 L136.042574,28.2772277 L154.755446,9.56435644 L154.755446,0.436633663 L149.141584,0.436633663 Z" id="Shape"></path>
            </g>
            <g id="logo-hudsonsBay_large">
                <path d="M2.1047619,40.0789116 C2.05991606,39.6853787 2.19568906,39.2927055 2.47403639,39.0109218 C2.75238372,38.7291381 3.14336144,38.5885574 3.53741497,38.6285714 L5.30612245,38.6285714 C5.70470362,38.5754764 6.10526806,38.7111078 6.38959713,38.9954369 C6.67392619,39.2797659 6.80955766,39.6803304 6.75646259,40.0789116 L6.75646259,46.1809524 L13.6190476,46.1809524 L13.6190476,40.0789116 C13.5659525,39.6803304 13.701584,39.2797659 13.9859131,38.9954369 C14.2702421,38.7111078 14.6708066,38.5754764 15.0693878,38.6285714 L16.8380952,38.6285714 C17.2378991,38.5768008 17.6392535,38.7121624 17.9260402,38.9954939 C18.212827,39.2788253 18.3530433,39.6785095 18.3061224,40.0789116 L18.3061224,56.0857143 C18.3530433,56.4861163 18.212827,56.8858005 17.9260402,57.169132 C17.6392535,57.4524635 17.2378991,57.587825 16.8380952,57.5360544 L15.0693878,57.5360544 C14.6708066,57.5891495 14.2702421,57.453518 13.9859131,57.169189 C13.701584,56.8848599 13.5659525,56.4842955 13.6190476,56.0857143 L13.6190476,50.1251701 L6.73877551,50.1251701 L6.73877551,56.0857143 C6.79187058,56.4842955 6.65623912,56.8848599 6.37191005,57.169189 C6.08758099,57.453518 5.68701654,57.5891495 5.28843537,57.5360544 L3.53741497,57.5360544 C3.13761106,57.587825 2.7362567,57.4524635 2.44946996,57.169132 C2.16268322,56.8858005 2.0224669,56.4861163 2.06938776,56.0857143 L2.1047619,40.0789116 Z" id="Shape"></path>
                <path d="M30.8108844,38.3102041 C33.4243748,38.1971389 35.9680707,39.1710276 37.8378116,41.000559 C39.7075525,42.8300904 40.7365023,45.3520163 40.6802721,47.9673469 C40.76469,50.6145396 39.7501523,53.1787031 37.8773529,55.0515025 C36.0045534,56.924302 33.44039,57.9388397 30.7931973,57.8544218 C28.1429864,57.9438387 25.5741198,56.9315106 23.6973965,55.0581385 C21.8206732,53.1847665 20.8037554,50.6177134 20.8884354,47.9673469 C20.836602,45.3439402 21.8743751,42.8163788 23.7547341,40.9862968 C25.635093,39.1562149 28.1898452,38.1873078 30.8108844,38.3102041 Z M30.8108844,53.6095238 C32.2411737,53.5552103 33.588858,52.9253668 34.5480156,51.8629665 C35.5071732,50.8005662 35.9964431,49.3957279 35.9047619,47.9673469 C36.0163608,46.0726281 35.0689306,44.2720717 33.4441376,43.2910205 C31.8193445,42.3099693 29.7847371,42.3099693 28.1599441,43.2910205 C26.535151,44.2720717 25.5877208,46.0726281 25.6993197,47.9673469 C25.6076226,49.3986852 26.0992741,50.8061794 27.0622444,51.869112 C28.0252148,52.9320446 29.3774717,53.559868 30.8108844,53.6095238 Z" id="Shape"></path>
                <path d="M43.3687075,40.0789116 C43.3156124,39.6803304 43.4512439,39.2797659 43.7355729,38.9954369 C44.019902,38.7111078 44.4204665,38.5754764 44.8190476,38.6285714 L50.3197279,38.6285714 C54.1047619,38.6285714 56.7401361,40.3088435 56.7401361,43.5632653 C56.7729938,45.2005865 55.9392123,46.7336686 54.5469388,47.5959184 C56.390173,48.1668414 57.6128352,49.9135018 57.5183673,51.8408163 C57.5183673,55.9795918 54.0693878,57.4829932 50.3197279,57.4829932 L44.8190476,57.4829932 C44.4204665,57.5360883 44.019902,57.4004568 43.7355729,57.1161277 C43.4512439,56.8317987 43.3156124,56.4312342 43.3687075,56.0326531 L43.3687075,40.0789116 Z M50.4435374,45.9510204 C50.910384,45.9747582 51.3640687,45.7920992 51.6842296,45.4515024 C52.0043906,45.1109056 52.1586644,44.6468003 52.1061224,44.1823129 C52.1327915,43.7189067 51.9488524,43.2682233 51.6055476,42.955816 C51.2622428,42.6434086 50.7962601,42.5026632 50.337415,42.5727891 L47.985034,42.5727891 L47.985034,45.9863946 L50.4435374,45.9510204 Z M50.8326531,53.5741497 C51.3746504,53.6106125 51.9061836,53.4124151 52.2919884,53.0299946 C52.6777931,52.6475742 52.8806658,52.1178078 52.8489796,51.5755102 C52.9015914,51.0402325 52.7077778,50.510099 52.3223282,50.134974 C51.9368786,49.7598489 51.4016795,49.5804968 50.8680272,49.647619 L47.985034,49.647619 L47.985034,53.5741497 L50.8326531,53.5741497 Z" id="Shape"></path>
                <path d="M59.5170068,53.9632653 L60.3482993,52.7782313 C60.8789116,52 61.4802721,51.9469388 62.3469388,52.4244898 C63.3971135,53.1298248 64.6206403,53.5335887 65.8843537,53.5918367 C67.2462585,53.5918367 67.8829932,53.0081633 67.8829932,52.2653061 C67.8829932,49.5945578 59.5346939,50.0190476 59.5346939,44.0938776 C59.5346939,40.5564626 62.4353741,38.3102041 66.2734694,38.3102041 C68.0735568,38.2958236 69.842576,38.7793963 71.385034,39.707483 C71.7146801,39.9042995 71.9488183,40.2280849 72.0324589,40.6027948 C72.1160995,40.9775047 72.0418725,41.3701216 71.8272109,41.6884354 L71.1904762,42.9265306 C70.6598639,43.970068 69.952381,43.8108844 69.2095238,43.4394558 C68.301221,42.9029249 67.2744197,42.5991375 66.2204082,42.555102 C64.770068,42.555102 64.1510204,43.1387755 64.1510204,43.8816327 C64.062585,46.6408163 72.5170068,45.9863946 72.5170068,51.9469388 C72.5170068,55.1306122 70.1292517,57.8544218 65.8843537,57.8544218 C63.7371147,57.8469934 61.6417746,57.1937403 59.8707483,55.9795918 C59.5154406,55.793791 59.2666148,55.4534664 59.1973299,55.0585422 C59.1280449,54.663618 59.2461644,54.258917 59.5170068,53.9632653 Z" id="Shape"></path>
                <path d="M84.0312925,38.3102041 C86.6477801,38.1920996 89.1961889,39.1637511 91.0698677,40.9938559 C92.9435464,42.8239608 93.9748832,45.348805 93.9183673,47.9673469 C93.9183673,53.4278276 89.4917732,57.8544218 84.0312925,57.8544218 C78.5708119,57.8544218 74.1442177,53.4278276 74.1442177,47.9673469 C74.0877018,45.348805 75.1190386,42.8239608 76.9927174,40.9938559 C78.8663962,39.1637511 81.4148049,38.1920996 84.0312925,38.3102041 Z M84.0312925,53.6095238 C85.4647052,53.559868 86.8169621,52.9320446 87.7799324,51.869112 C88.7429027,50.8061794 89.2345542,49.3986852 89.1428571,47.9673469 C89.2544561,46.0726281 88.3070259,44.2720717 86.6822328,43.2910205 C85.0574397,42.3099693 83.0228324,42.3099693 81.3980393,43.2910205 C79.7732462,44.2720717 78.8258161,46.0726281 78.937415,47.9673469 C78.8457338,49.3957279 79.3350036,50.8005662 80.2941613,51.8629665 C81.2533189,52.9253668 82.6010031,53.5552103 84.0312925,53.6095238 Z" id="Shape"></path>
                <path d="M96.5891156,40.0789116 C96.5421948,39.6785095 96.6824111,39.2788253 96.9691979,38.9954939 C97.2559846,38.7121624 97.6573389,38.5768008 98.0571429,38.6285714 L100.108844,38.6285714 C100.843734,38.5515419 101.549065,38.9394739 101.877551,39.6013605 L106.529252,47.4544218 C107.118688,48.5033944 107.650099,49.5839314 108.121088,50.6911565 C108.121088,50.6911565 107.891156,48.6394558 107.891156,47.4544218 L107.891156,40.0789116 C107.838061,39.6803304 107.973693,39.2797659 108.258022,38.9954369 C108.542351,38.7111078 108.942915,38.5754764 109.341497,38.6285714 L111.110204,38.6285714 C111.508785,38.5754764 111.90935,38.7111078 112.193679,38.9954369 C112.478008,39.2797659 112.613639,39.6803304 112.560544,40.0789116 L112.560544,56.0857143 C112.613639,56.4842955 112.478008,56.8848599 112.193679,57.169189 C111.90935,57.453518 111.508785,57.5891495 111.110204,57.5360544 L109.058503,57.5360544 C108.319448,57.61002 107.612913,57.2143605 107.289796,56.5455782 L102.585034,48.7278912 C101.995598,47.6789185 101.464187,46.5983815 100.993197,45.4911565 C100.993197,45.4911565 101.205442,47.5428571 101.205442,48.7278912 L101.205442,56.0857143 C101.258537,56.4842955 101.122906,56.8848599 100.838577,57.169189 C100.554248,57.453518 100.153683,57.5891495 99.755102,57.5360544 L97.9863946,57.5360544 C97.5865906,57.587825 97.1852363,57.4524635 96.8984496,57.169132 C96.6116628,56.8858005 96.4714465,56.4861163 96.5183673,56.0857143 L96.5891156,40.0789116 Z" id="Shape"></path>
                <path d="M115.602721,53.9632653 L116.434014,52.7782313 C116.946939,52 117.565986,51.9469388 118.432653,52.4244898 C119.482828,53.1298248 120.706355,53.5335887 121.970068,53.5918367 C123.331973,53.5918367 123.968707,53.0081633 123.968707,52.2653061 C123.968707,49.5945578 115.620408,50.0190476 115.620408,44.0938776 C115.620408,40.5564626 118.521088,38.3102041 122.359184,38.3102041 C124.159271,38.2958236 125.92829,38.7793963 127.470748,39.707483 C127.804509,39.9006277 128.042199,40.2246459 128.126207,40.6010016 C128.210215,40.9773573 128.132872,41.3716952 127.912925,41.6884354 L127.27619,42.9265306 C126.745578,43.970068 126.038095,43.8108844 125.295238,43.4394558 C124.386935,42.9029249 123.360134,42.5991375 122.306122,42.555102 C120.855782,42.555102 120.236735,43.1387755 120.236735,43.8816327 C120.236735,46.6408163 128.602721,45.9687075 128.602721,51.9469388 C128.602721,55.1306122 126.214966,57.8544218 121.970068,57.8544218 C119.822829,57.8469934 117.727489,57.1937403 115.956463,55.9795918 C115.601155,55.793791 115.352329,55.4534664 115.283044,55.0585422 C115.213759,54.663618 115.331879,54.258917 115.602721,53.9632653 Z" id="Shape"></path>
                <path d="M2.1047619,66.4503401 C2.05991606,66.0568072 2.19568906,65.6641341 2.47403639,65.3823504 C2.75238372,65.1005666 3.14336144,64.959986 3.53741497,65 L9.07346939,65 C12.8585034,65 15.4938776,66.7687075 15.4938776,69.9346939 C15.5267353,71.5720151 14.6929538,73.1050972 13.3006803,73.9673469 C15.1408031,74.5394515 16.3574992,76.2879968 16.2544218,78.2122449 C16.2544218,82.3510204 12.8231293,83.8544218 9.07346939,83.8544218 L3.53741497,83.8544218 C3.13761106,83.9061924 2.7362567,83.7708308 2.44946996,83.4874993 C2.16268322,83.2041679 2.0224669,82.8044837 2.06938776,82.4040816 L2.1047619,66.4503401 Z M9.17959184,72.322449 C9.6446753,72.3401077 10.0946335,72.1555799 10.4134033,71.8164631 C10.7321732,71.4773462 10.8885424,71.0168448 10.8421769,70.5537415 C10.8688459,70.0903353 10.6849068,69.6396519 10.341602,69.3272445 C9.99829725,69.0148372 9.53231455,68.8740917 9.07346939,68.9442177 L6.73877551,68.9442177 L6.73877551,72.3047619 L9.17959184,72.322449 Z M9.56870748,79.9278912 C10.1089676,79.9697507 10.6409153,79.7758089 11.0274576,79.396048 C11.4139999,79.0162872 11.6173257,78.4878551 11.585034,77.9469388 C11.6293707,77.4069324 11.423748,76.8763954 11.0270721,76.5073143 C10.6303961,76.1382332 10.0864348,75.9713312 9.55102041,76.0544218 L6.73877551,76.0544218 L6.73877551,79.9632653 L9.56870748,79.9278912 Z" id="Shape"></path>
                <path d="M22.8693878,66.185034 C23.0499909,65.4381392 23.7486356,64.9348146 24.5142857,65 L26.8843537,65 C27.6500039,64.9348146 28.3486486,65.4381392 28.5292517,66.185034 L34.0122449,82.244898 C34.2264196,82.6292472 34.1984719,83.1028821 33.9405824,83.4593763 C33.682693,83.8158706 33.241591,83.9906279 32.8095238,83.907483 L31.0408163,83.907483 C30.2688546,83.9542715 29.5749567,83.439444 29.3959184,82.6870748 L28.6,79.9278912 L22.7455782,79.9278912 L21.9496599,82.6870748 C21.7925943,83.4383527 21.105925,83.9590141 20.3401361,83.907483 L18.5714286,83.907483 C17.5102041,83.907483 17.0326531,83.2353741 17.3863946,82.244898 L22.8693878,66.185034 Z M27.5564626,76.2312925 L26.5306122,72.5170068 C26.1945578,71.3319728 25.770068,69.262585 25.770068,69.262585 C25.770068,69.262585 25.3455782,71.3319728 24.9918367,72.5170068 L23.9129252,76.1959184 L27.5564626,76.2312925 Z" id="Shape"></path>
                <path d="M38.7346939,76.1605442 L33.4285714,66.7333333 C32.844898,65.7428571 33.2870748,64.9646259 34.4190476,64.9646259 L36.5238095,64.9646259 C37.2615515,64.9104161 37.9463779,65.3501467 38.2040816,66.0435374 L39.8489796,69.5809524 C40.4503401,70.8721088 40.9809524,72.3047619 40.9809524,72.3047619 C40.9809524,72.3047619 41.5115646,70.8721088 42.1306122,69.5809524 L43.7401361,66.0435374 C43.9978398,65.3501467 44.6826662,64.9104161 45.4204082,64.9646259 L47.5251701,64.9646259 C48.6571429,64.9646259 49.0993197,65.707483 48.5156463,66.7333333 L43.2095238,76.1605442 L43.2095238,82.4571429 C43.2553594,82.8540867 43.1173587,83.2502243 42.8348119,83.5327711 C42.5522652,83.8153178 42.1561275,83.9533186 41.7591837,83.907483 L39.9904762,83.907483 C39.5935323,83.9533186 39.1973947,83.8153178 38.914848,83.5327711 C38.6323012,83.2502243 38.4943005,82.8540867 38.5401361,82.4571429 L38.7346939,76.1605442 Z" id="Shape"></path>
                <path d="M66.2734694,65.0707483 C68.5262255,65.0133659 70.7303496,65.7314233 72.5170068,67.1047619 C72.6034753,67.1881048 72.6523244,67.3030341 72.6523244,67.4231293 C72.6523244,67.5432244 72.6034753,67.6581537 72.5170068,67.7414966 L72.3931973,67.9006803 C72.3160192,67.9977066 72.198808,68.0542426 72.0748299,68.0542426 C71.9508519,68.0542426 71.8336407,67.9977066 71.7564626,67.9006803 C70.1390789,66.7381566 68.1945091,66.1188668 66.2027211,66.1319728 C64.0344338,66.1525131 61.9692939,67.0607435 60.4886942,68.6449518 C59.0080944,70.2291602 58.2414059,72.3509221 58.3673469,74.5156463 C58.2315752,76.734895 59.0119378,78.9127126 60.5262613,80.5406939 C62.0405847,82.1686752 64.1563334,83.104337 66.3795918,83.1292517 C68.5580277,83.1265041 70.6644876,82.34912 72.322449,80.9360544 C72.4030312,80.8446828 72.5189875,80.7923382 72.6408163,80.7923382 C72.7626451,80.7923382 72.8786015,80.8446828 72.9591837,80.9360544 L73.0653061,81.0598639 C73.1566777,81.1404461 73.2090223,81.2564025 73.2090223,81.3782313 C73.2090223,81.5000601 73.1566777,81.6160165 73.0653061,81.6965986 C71.2313019,83.3185322 68.8632268,84.2065603 66.414966,84.1904762 C63.8720833,84.2084981 61.4343549,83.1769037 59.6768406,81.3390459 C57.9193264,79.5011882 56.9976561,77.0198114 57.1292517,74.4802721 C57.0270806,72.0009987 57.9487281,69.588765 59.6780607,67.8092583 C61.4073934,66.0297516 63.7922883,65.0395084 66.2734694,65.0707483 Z" id="Shape"></path>
                <path d="M77.2394558,65.8312925 C77.2284477,65.7109813 77.2714851,65.5920015 77.3569133,65.5065732 C77.4423416,65.4211449 77.5613214,65.3781075 77.6816327,65.3891156 L77.9292517,65.3891156 C78.049563,65.3781075 78.1685427,65.4211449 78.253971,65.5065732 C78.3393993,65.5920015 78.3824367,65.7109813 78.3714286,65.8312925 L78.3714286,83.5183673 C78.3882204,83.6415525 78.3477606,83.7656536 78.2615903,83.8552707 C78.1754201,83.9448878 78.0530004,83.9901813 77.9292517,83.9782313 L77.6816327,83.9782313 C77.557884,83.9901813 77.4354643,83.9448878 77.349294,83.8552707 C77.2631237,83.7656536 77.2226639,83.6415525 77.2394558,83.5183673 L77.2394558,65.8312925 Z" id="Shape"></path>
                <path d="M88.2054422,66.4503401 L81.7673469,66.4503401 C81.6407261,66.4682864 81.5130366,66.4256451 81.4226074,66.3352158 C81.3321781,66.2447865 81.2895367,66.1170971 81.307483,65.9904762 L81.307483,65.8312925 C81.295533,65.7075438 81.3408265,65.5851242 81.4304436,65.4989539 C81.5200607,65.4127836 81.6441618,65.3723238 81.7673469,65.3891156 L95.8108844,65.3891156 C95.9311956,65.3781075 96.0501754,65.4211449 96.1356037,65.5065732 C96.2210319,65.5920015 96.2640693,65.7109813 96.2530612,65.8312925 L96.2530612,65.9904762 C96.2698531,66.1136613 96.2293933,66.2377624 96.143223,66.3273795 C96.0570527,66.4169966 95.9346331,66.4622902 95.8108844,66.4503401 L89.355102,66.4503401 L89.355102,83.447619 C89.3730483,83.5742399 89.330407,83.7019293 89.2399777,83.7923586 C89.1495484,83.8827879 89.021859,83.9254293 88.8952381,83.907483 L88.6653061,83.907483 C88.5386853,83.9254293 88.4109958,83.8827879 88.3205665,83.7923586 C88.2301372,83.7019293 88.1874959,83.5742399 88.2054422,83.447619 L88.2054422,66.4503401 Z" id="Shape"></path>
                <path d="M103.027211,75.8598639 L97.0489796,65.9197279 C96.8544218,65.6367347 97.0489796,65.3891156 97.3673469,65.3891156 L97.6857143,65.3891156 C97.9031117,65.3892192 98.1045222,65.5033517 98.2163265,65.6897959 L102.408163,72.7646259 C102.938776,73.6666667 103.557823,74.8517007 103.557823,74.8517007 C103.557823,74.8517007 104.12381,73.6666667 104.689796,72.7646259 L108.89932,65.6897959 C108.999645,65.5006053 109.198155,65.3842371 109.412245,65.3891156 L109.730612,65.3891156 C110.102041,65.3891156 110.243537,65.6367347 110.04898,65.9197279 L104.106122,75.8598639 L104.106122,83.447619 C104.122914,83.5708042 104.082455,83.6949053 103.996284,83.7845224 C103.910114,83.8741395 103.787694,83.919433 103.663946,83.907483 L103.469388,83.907483 C103.345639,83.919433 103.223219,83.8741395 103.137049,83.7845224 C103.050879,83.6949053 103.010419,83.5708042 103.027211,83.447619 L103.027211,75.8598639 Z" id="Shape"></path>
                <path d="M10.9482993,91.4421769 C13.2182766,91.3783203 15.4412611,92.0964192 17.244898,93.4761905 C17.3313665,93.5595334 17.3802156,93.6744627 17.3802156,93.7945578 C17.3802156,93.914653 17.3313665,94.0295822 17.244898,94.1129252 L17.1034014,94.2721088 C17.0262233,94.3691352 16.9090121,94.4256712 16.785034,94.4256712 C16.6610559,94.4256712 16.5438448,94.3691352 16.4666667,94.2721088 C14.849283,93.1095851 12.9047132,92.4902954 10.9129252,92.5034014 C8.73607708,92.491055 6.65002402,93.3748225 5.14455372,94.9472026 C3.63908341,96.5195827 2.84680598,98.6420715 2.9537415,100.816327 C2.82243029,103.049492 3.61639903,105.238203 5.14894905,106.867792 C6.68149906,108.497381 8.81740677,109.424063 11.0544218,109.429932 C13.2328576,109.427184 15.3393176,108.6498 16.9972789,107.236735 C17.0778611,107.145363 17.1938174,107.093019 17.3156463,107.093019 C17.4374751,107.093019 17.5534314,107.145363 17.6340136,107.236735 L17.7401361,107.360544 C17.8371624,107.437722 17.8936984,107.554933 17.8936984,107.678912 C17.8936984,107.80289 17.8371624,107.920101 17.7401361,107.997279 C15.9007084,109.621842 13.526156,110.509937 11.0721088,110.491156 C8.5342185,110.508391 6.10071748,109.482138 4.34157617,107.652765 C2.58243485,105.823391 1.65218477,103.351599 1.76870748,100.816327 C1.67611898,98.3368334 2.60695341,95.9283177 4.34294843,94.155529 C6.07894345,92.3827403 8.46740987,91.4016038 10.9482993,91.4421769 Z" id="Shape"></path>
                <path d="M29.6435374,91.4421769 C32.13683,91.4133456 34.5361724,92.3922938 36.2976486,94.1570999 C38.0591249,95.9219059 39.0335399,98.3230928 39,100.816327 C39,105.983758 34.810969,110.172789 29.6435374,110.172789 C24.4761058,110.172789 20.2870748,105.983758 20.2870748,100.816327 C20.2486091,98.3216323 21.221439,95.9175711 22.9839971,94.151681 C24.7465553,92.385791 27.148775,91.4084226 29.6435374,91.4421769 Z M29.6435374,109.50068 C31.8976462,109.489665 34.0484414,108.55396 35.5931378,106.912303 C37.1378342,105.270645 37.9410306,103.066934 37.814966,100.816327 C37.814966,96.3033711 34.1564928,92.644898 29.6435374,92.644898 C25.130582,92.644898 21.4721088,96.3033711 21.4721088,100.816327 C21.3460442,103.066934 22.1492406,105.270645 23.693937,106.912303 C25.2386334,108.55396 27.3894286,109.489665 29.6435374,109.50068 Z" id="Shape"></path>
                <path d="M42.9619048,92.2027211 C42.9499547,92.0789724 42.9952483,91.9565527 43.0848654,91.8703824 C43.1744825,91.7842122 43.2985836,91.7437523 43.4217687,91.7605442 L43.6517007,91.7605442 C43.7748858,91.7437523 43.8989869,91.7842122 43.988604,91.8703824 C44.0782211,91.9565527 44.1235147,92.0789724 44.1115646,92.2027211 L44.1115646,103.87619 C44.0125611,105.421337 44.5933889,106.932649 45.7017278,108.013789 C46.8100666,109.09493 48.3353407,109.638036 49.877551,109.50068 C51.43254,109.645553 52.9723861,109.098044 54.0868684,108.004011 C55.2013506,106.909978 55.7772792,105.380534 55.6612245,103.823129 L55.6612245,92.2027211 C55.6492745,92.0789724 55.694568,91.9565527 55.7841851,91.8703824 C55.8738022,91.7842122 55.9979033,91.7437523 56.1210884,91.7605442 L56.3510204,91.7605442 C56.4713317,91.7495361 56.5903114,91.7925735 56.6757397,91.8780018 C56.761168,91.96343 56.8042054,92.0824098 56.7931973,92.2027211 L56.7931973,103.929252 C56.869088,105.760708 56.1585456,107.537272 54.8406197,108.811267 C53.5226938,110.085262 51.7230707,110.735192 49.8952381,110.597279 C48.0629656,110.740029 46.2570302,110.092919 44.9323952,108.818971 C43.6077602,107.545024 42.8907158,105.765697 42.9619048,103.929252 L42.9619048,92.2027211 Z" id="Shape"></path>
                <path d="M62.0816327,92.2027211 C62.0696826,92.0789724 62.1149762,91.9565527 62.2045933,91.8703824 C62.2942104,91.7842122 62.4183115,91.7437523 62.5414966,91.7605442 L62.8068027,91.7605442 C63.0295874,91.7579405 63.2375284,91.8719727 63.355102,92.0612245 L73.7020408,106.210884 C74.3034014,107.059864 75.2054422,108.545578 75.2054422,108.545578 C75.2054422,108.545578 75.0639456,107.130612 75.0639456,106.210884 L75.0639456,92.0612245 C75.0519955,91.9374758 75.0972891,91.8150561 75.1869062,91.7288858 C75.2765233,91.6427156 75.4006244,91.6022557 75.5238095,91.6190476 L75.7537415,91.6190476 C75.8769266,91.6022557 76.0010277,91.6427156 76.0906448,91.7288858 C76.1802619,91.8150561 76.2255555,91.9374758 76.2136054,92.0612245 L76.2136054,109.748299 C76.2315517,109.87492 76.1889104,110.00261 76.0984811,110.093039 C76.0080518,110.183468 75.8803624,110.22611 75.7537415,110.208163 L75.4884354,110.208163 C75.2656507,110.210767 75.0577097,110.096735 74.9401361,109.907483 L64.5931973,95.7578231 C63.9918367,94.9088435 63.0897959,93.4231293 63.0897959,93.4231293 C63.0897959,93.4231293 63.2312925,94.8380952 63.2312925,95.7578231 L63.2312925,109.907483 C63.2492388,110.034104 63.2065974,110.161793 63.1161682,110.252223 C63.0257389,110.342652 62.8980494,110.385293 62.7714286,110.367347 L62.5414966,110.367347 C62.4148757,110.385293 62.2871863,110.342652 62.196757,110.252223 C62.1063277,110.161793 62.0636864,110.034104 62.0816327,109.907483 L62.0816327,92.2027211 Z" id="Shape"></path>
                <path d="M89.6911565,91.4421769 C91.9617552,91.3739637 94.1861629,92.0925224 95.9877551,93.4761905 C96.0742236,93.5595334 96.1230727,93.6744627 96.1230727,93.7945578 C96.1230727,93.914653 96.0742236,94.0295822 95.9877551,94.1129252 L95.8639456,94.2721088 C95.7867675,94.3691352 95.6695563,94.4256712 95.5455782,94.4256712 C95.4216002,94.4256712 95.304389,94.3691352 95.2272109,94.2721088 C93.6065462,93.1161274 91.6641509,92.4975302 89.6734694,92.5034014 C87.4966213,92.491055 85.4105682,93.3748225 83.9050979,94.9472026 C82.3996276,96.5195827 81.6073502,98.6420715 81.7142857,100.816327 C81.5779023,103.047763 82.367737,105.236682 83.8975354,106.866905 C85.4273338,108.497128 87.5616854,109.424355 89.7972789,109.429932 C91.9806995,109.425233 94.0920789,108.648345 95.7578231,107.236735 C95.8351133,107.146109 95.9482383,107.093908 96.0673469,107.093908 C96.1864555,107.093908 96.2995806,107.146109 96.3768707,107.236735 L96.5006803,107.360544 C96.5920519,107.441126 96.6443965,107.557083 96.6443965,107.678912 C96.6443965,107.80074 96.5920519,107.916697 96.5006803,107.997279 C94.6612526,109.621842 92.2867002,110.509937 89.8326531,110.491156 C87.2917026,110.513272 84.8535405,109.48916 83.0905146,107.659226 C81.3274887,105.829292 80.394862,103.354692 80.5115646,100.816327 C80.4189761,98.3368334 81.3498106,95.9283177 83.0858056,94.155529 C84.8218006,92.3827403 87.210267,91.4016038 89.6911565,91.4421769 Z" id="Shape"></path>
                <path d="M100.67483,92.2027211 C100.663822,92.0824098 100.706859,91.96343 100.792287,91.8780018 C100.877716,91.7925735 100.996696,91.7495361 101.117007,91.7605442 L101.364626,91.7605442 C101.484937,91.7495361 101.603917,91.7925735 101.689345,91.8780018 C101.774773,91.96343 101.817811,92.0824098 101.806803,92.2027211 L101.806803,109.889796 C101.823595,110.012981 101.783135,110.137082 101.696964,110.226699 C101.610794,110.316316 101.488375,110.36161 101.364626,110.34966 L101.117007,110.34966 C100.993258,110.36161 100.870838,110.316316 100.784668,110.226699 C100.698498,110.137082 100.658038,110.012981 100.67483,109.889796 L100.67483,92.2027211 Z" id="Shape"></path>
                <path d="M107.360544,92.2027211 C107.349536,92.0824098 107.392574,91.96343 107.478002,91.8780018 C107.56343,91.7925735 107.68241,91.7495361 107.802721,91.7605442 L108.05034,91.7605442 C108.170651,91.7495361 108.289631,91.7925735 108.375059,91.8780018 C108.460488,91.96343 108.503525,92.0824098 108.492517,92.2027211 L108.492517,109.217687 L116.87619,109.217687 C116.999376,109.200895 117.123477,109.241355 117.213094,109.327525 C117.302711,109.413696 117.348004,109.536115 117.336054,109.659864 L117.336054,109.819048 C117.354001,109.945668 117.311359,110.073358 117.22093,110.163787 C117.130501,110.254216 117.002811,110.296858 116.87619,110.278912 L107.891156,110.278912 C107.767408,110.290862 107.644988,110.245568 107.558818,110.155951 C107.472648,110.066334 107.432188,109.942233 107.44898,109.819048 L107.360544,92.2027211 Z" id="Shape"></path>
                <path d="M210.47619,64.1156463 C211.238118,64.1156463 211.855782,64.7333106 211.855782,65.4952381 C211.855782,66.2571656 211.238118,66.8748299 210.47619,66.8748299 C209.714263,66.8748299 209.096599,66.2571656 209.096599,65.4952381 C209.091796,65.1278964 209.235603,64.7741946 209.495375,64.5144226 C209.755147,64.2546505 210.108849,64.1108438 210.47619,64.1156463" id="Shape"></path>
                <path d="M194.557823,23.8244898 C183.945578,34.4367347 175.791837,42.3959184 175.791837,42.3959184 L179.081633,45.6857143 C179.081633,45.6857143 187.023129,37.5673469 197.670748,26.9197279 C206.226293,18.493698 214.203592,9.50003173 221.548299,0 C212.027865,7.3278263 203.010718,15.287261 194.557823,23.8244898" id="Shape"></path>
                <path d="M173.970068,40.5210884 L181.823129,32.6857143 C201.632653,12.9292517 207.027211,0.848979592 207.027211,0.848979592 L170.662585,37.1428571 L173.970068,40.5210884 Z" id="Shape"></path>
                <path d="M189.446259,49.4176871 L186.156463,52.707483 L189.463946,56.014966 L221.30068,24.1782313 C221.30068,24.1782313 209.238095,29.6081633 189.463946,49.3646259" id="Shape"></path>
                <path d="M221.265306,34.5782313 C221.265306,34.5782313 209.609524,39.8843537 190.578231,58.6503401 C191.183223,60.308779 191.702727,61.9971661 192.134694,63.7088435 L221.265306,34.5782313 Z" id="Shape"></path>
                <path d="M189.446259,39.0707483 L180.97415,47.5251701 L184.29932,50.8503401 L221.265306,13.8666667 C221.265306,13.8666667 209.202721,19.2965986 189.428571,39.0707483" id="Shape"></path>
                <path d="M210.47619,66.8748299 C211.238118,66.8748299 211.855782,66.2571656 211.855782,65.4952381 C211.855782,64.7333106 211.238118,64.1156463 210.47619,64.1156463 C209.714263,64.1156463 209.096599,64.7333106 209.096599,65.4952381 C209.091796,65.8625798 209.235603,66.2162816 209.495375,66.4760536 C209.755147,66.7358256 210.108849,66.8796324 210.47619,66.8748299" id="Shape"></path>
                <path d="M208.707483,79.1319728 C206.167639,78.2494641 203.8245,76.8796287 201.809524,75.0993197 C199.990156,73.2329018 199.165553,70.6132162 199.587826,68.0411934 C200.010098,65.4691707 201.629031,63.2506626 203.94966,62.0639456 L204.108844,61.9755102 L221.282993,44.7836735 C221.282993,44.7836735 210.670748,49.6122449 192.82449,66.6979592 L193.036735,67.847619 L193.036735,68.1129252 C193.97915,71.5349863 195.809736,74.6469816 198.342857,77.1333333 C201.279201,79.6660847 204.872677,81.31565 208.707483,81.8911565 C209.469411,81.8911565 210.087075,81.2734922 210.087075,80.5115646 C210.087075,79.7496371 209.469411,79.1319728 208.707483,79.1319728" id="Shape"></path>
                <path d="M193.019048,67.847619 L192.806803,66.6979592 C192.836242,67.0876655 192.907397,67.47309 193.019048,67.847619" id="Shape"></path>
                <path d="M213.50068,62.9482993 L221.265306,55.1659864 C217.688946,56.9956509 214.285103,59.1445118 211.095238,61.5863946 C211.986187,61.7914126 212.797728,62.2525154 213.429932,62.9129252 L213.50068,62.9482993 Z" id="Shape"></path>
                <path d="M257.134694,71.7210884 C255.507483,71.3142857 245.496599,69.5632653 237.378231,67.9360544 C229.259864,66.3088435 214.102041,63.6734694 214.102041,63.6734694 C214.192489,63.844033 214.26937,64.0214517 214.331973,64.2040816 C214.481151,64.6122252 214.558931,65.0430095 214.561905,65.477551 C214.580227,65.6598582 214.580227,65.8435431 214.561905,66.0258503 C215.37551,66.1496599 249.317007,71.3319728 251.492517,71.9333333 L252.164626,71.7918367 L251.492517,71.9333333 L251.616327,71.9333333 L251.156463,71.9333333 C247.42449,71.7210884 213.889796,67.6176871 213.889796,67.6176871 C213.158185,68.79894 211.865645,69.5155296 210.47619,69.5102041 C209.861285,69.5111027 209.255001,69.3655946 208.707483,69.0857143 L208.565986,69.2272109 C207.804059,69.2272109 207.186395,69.8448752 207.186395,70.6068027 C207.221024,70.9392367 207.343076,71.2565701 207.540136,71.5265306 C210.564626,76.8326531 218.453061,78.3006803 221.689796,78.6013605 C222.591837,78.707483 223.157823,78.7251701 223.157823,78.7251701 C229.242177,79.1319728 243.586395,76.0190476 248.733333,74.7986395 C252.439399,74.0396339 256.217576,73.6896928 260,73.755102 C260,72.8 258.761905,72.1278912 257.134694,71.7210884 Z" id="Shape"></path>
                <path d="M220.805442,88.4353741 C218.789116,92.662585 213.093878,95.4040816 208.831293,96.7129252 C203.52517,98.3401361 193.797279,100.639456 184.193197,97.9333333 C174.589116,95.2272109 170.662585,93.7414966 163.888435,93.7414966 C160.302643,93.6588719 156.724921,94.1180129 153.27619,95.1034014 C156.024533,91.5826498 159.313927,88.5201107 163.021769,86.029932 C167.389854,83.4138608 172.034563,81.2902264 176.870748,79.6979592 C170.992199,79.5718631 165.325447,77.4795242 160.77551,73.755102 C161.530943,73.0101879 162.347398,72.3298085 163.216327,71.7210884 C158.314638,69.5950486 154.232085,65.9406047 151.578231,61.3034014 C152.388625,60.6848888 153.252858,60.1403037 154.160544,59.6761905 C150.747465,55.3300823 148.758578,50.0366783 148.465306,44.5183673 L148.465306,110.296599 L221.548299,110.296599 L221.548299,85.2517007 C221.539535,86.3661851 221.285933,87.4651239 220.805442,88.4707483" id="Shape"></path>
                <path d="M185.006803,0.54829932 L185.006803,18.5360544 L166.629932,0.707482993 L166.470748,18.8013605 L147.934694,0.54829932 C148.054904,1.44755195 148.226156,2.33924089 148.447619,3.21904762 C150.904731,13.3769632 156.105321,22.6646041 163.481633,30.0680272 L168.787755,35.3741497 L192.134694,12.0272109 L192.134694,0.54829932 L185.006803,0.54829932 Z" id="Shape"></path>
            </g>
        </g>
    </g>
</svg>