
<svg width="158px" height="50px" viewBox="0 0 158 50" version="1.1" xmlns="http://www.w3.org/2000/svg" xmlns:xlink="http://www.w3.org/1999/xlink">
    <defs>
        <polygon id="path-1" points="0 50 158 50 158 0 0 0"></polygon>
    </defs>
    <g id="Symbols" stroke="none" stroke-width="1" fill="none" fill-rule="evenodd">
        <g id="mainnav/explore" transform="translate(-26.000000, -40.000000)">
            <g id="Group-27" transform="translate(26.000000, 40.000000)">
                <path d="M74.6385822,23 C77.0005811,23 78.7873329,21.1736032 78.9825683,18.5578465 L79,18.3386789 L77.7117955,18.3386789 L77.6978501,18.527555 C77.5549099,20.3949345 76.3259733,21.6493573 74.6385822,21.6493573 C73.7321325,21.6493573 72.9633934,21.2929871 72.353283,20.5891562 C71.3683905,19.4469899 71.2847182,17.6170294 71.2847182,15.9901998 C71.2847182,14.2903144 71.3666473,12.5351915 72.3375944,11.409062 C72.9546775,10.6963218 73.7094712,10.3488609 74.6385822,10.3488609 C76.3259733,10.3488609 77.5549099,11.6050655 77.6978501,13.472445 L77.7117955,13.6595393 L79,13.6595393 L78.9825683,13.4403716 C78.7873329,10.8263968 77.0005811,9 74.6385822,9 C73.4514817,9 72.2469494,9.55771923 71.4154561,10.4914089 C70.1080767,11.9792542 70,14.1103475 70,15.9901998 C70,17.8789614 70.1080767,20.018964 71.4154561,21.5085911 C72.2469494,22.4422808 73.4514817,23 74.6385822,23" id="Fill-1" fill="#FFFFFE"></path>
                <mask id="mask-2" fill="white">
                    <use xlink:href="#path-1"></use>
                </mask>
                <g id="Clip-4"></g>
                <polygon id="Fill-3" fill="#FFFFFE" mask="url(#mask-2)" points="83.271 23 84.729 23 84.729 10 83.271 10"></polygon>
                <polygon id="Fill-5" fill="#FFFFFE" mask="url(#mask-2)" points="96 10 87 10 87 11.281666 90.840603 11.281666 90.840603 23 92.1413065 23 92.1413065 11.281666 96 11.281666"></polygon>
                <polygon id="Fill-6" fill="#FFFFFE" mask="url(#mask-2)" points="106.617293 10 103.025538 16.4751549 99.4337833 10 98 10 102.352426 17.8544879 102.352426 23 103.647574 23 103.647574 17.8544879 108 10"></polygon>
                <path d="M122.500842,10.3504709 C123.343066,10.3504709 124.10612,10.6889794 124.648512,11.3036396 L124.648512,11.3054212 C125.670971,12.4420972 125.756878,14.3199287 125.756878,15.9910919 C125.756878,17.6693815 125.670971,19.5561212 124.648512,20.6963604 C124.10612,21.3110206 123.343066,21.6477475 122.500842,21.6477475 C121.658619,21.6477475 120.895564,21.3110206 120.351488,20.6945788 C119.329029,19.5561212 119.243122,17.6693815 119.243122,15.9910919 C119.243122,14.3199287 119.329029,12.4420972 120.353172,11.3036396 C120.895564,10.6889794 121.658619,10.3504709 122.500842,10.3504709 M122.500842,23 C123.661426,23 124.710837,22.5171799 125.532847,21.6049885 L125.532847,21.6032069 C126.821449,20.1600916 127,18.0524306 127,15.9910919 C127,13.9386612 126.821449,11.8399084 125.532847,10.3950115 C124.710837,9.48282006 123.661426,9 122.500842,9 C121.338574,9 120.290848,9.48282006 119.467153,10.3950115 C118.178551,11.8399084 118,13.9386612 118,15.9910919 C118,18.0524306 118.178551,20.1600916 119.468838,21.6049885 C120.290848,22.5171799 121.338574,23 122.500842,23" id="Fill-7" fill="#FFFFFE" mask="url(#mask-2)"></path>
                <polygon id="Fill-8" fill="#FFFFFE" mask="url(#mask-2)" points="138.333635 15.7623567 132.303757 15.7623567 132.303757 11.281666 139 11.281666 139 10 131 10 131 23 132.303757 23 132.303757 17.0423092 138.333635 17.0423092"></polygon>
                <path d="M76.1547055,35.4119663 L71.8266757,35.4119663 L73.9695328,29.0764365 L76.1547055,35.4119663 Z M73.4312796,27 L69,40 L70.2728504,40 L71.3916723,36.6746178 L76.5947867,36.6746178 L77.7423832,40 L79,40 L74.521327,27 L73.4312796,27 Z" id="Fill-9" fill="#FFFFFE" mask="url(#mask-2)"></path>
                <path d="M86.243429,38.7013706 L83.3101496,38.7013706 L83.3101496,28.3003426 L86.243429,28.3003426 C87.1132228,28.3003426 87.9411646,28.6207169 88.514355,29.1809436 C89.5861302,30.2414338 89.6752932,31.9615182 89.6752932,33.4914338 C89.6752932,35.0213495 89.5861302,36.7431471 88.514355,37.8190564 C87.9411646,38.3809963 87.1132228,38.7013706 86.243429,38.7013706 M86.243429,27 L82,27 L82,40 L86.243429,40 C87.4898908,40 88.6326324,39.5357143 89.4678528,38.6928044 C90.8162151,37.3513442 91,35.3999736 91,33.4914338 C91,31.5914602 90.8162151,29.6486558 89.4678528,28.3089088 C88.6344521,27.4642857 87.4898908,27 86.243429,27" id="Fill-10" fill="#FFFFFE" mask="url(#mask-2)"></path>
                <polygon id="Fill-11" fill="#FFFFFE" mask="url(#mask-2)" points="96 40 104 40 104 38.718334 97.2922668 38.718334 97.2922668 33.7938579 103.196986 33.7938579 103.196986 32.5121919 97.2922668 32.5121919 97.2922668 28.2799526 104 28.2799526 104 27 96 27"></polygon>
                <polygon id="Fill-12" fill="#FFFFFE" mask="url(#mask-2)" points="109.20062 27 108 27 108 40 115 40 115 38.7388955 109.20062 38.7388955"></polygon>
                <path d="M124.154705,35.4119663 L119.826676,35.4119663 L121.969533,29.0764365 L124.154705,35.4119663 Z M121.43128,27 L117,40 L118.27285,40 L119.391672,36.6746178 L124.594787,36.6746178 L125.742383,40 L127,40 L122.519634,27 L121.43128,27 Z" id="Fill-13" fill="#FFFFFE" mask="url(#mask-2)"></path>
                <polygon id="Fill-14" fill="#FFFFFE" mask="url(#mask-2)" points="131.271 40 132.729 40 132.729 27 131.271 27"></polygon>
                <path d="M141.243429,38.7013706 L138.31015,38.7013706 L138.31015,28.3003426 L141.243429,28.3003426 C142.113223,28.3003426 142.941165,28.6207169 143.514355,29.1809436 C144.58613,30.2414338 144.675293,31.9615182 144.675293,33.4914338 C144.675293,35.0213495 144.58613,36.7431471 143.514355,37.8190564 C142.941165,38.3809963 142.115042,38.7013706 141.243429,38.7013706 M141.243429,27 L137,27 L137,40 L141.243429,40 C142.489891,40 143.634452,39.5357143 144.467853,38.6928044 C145.816215,37.3513442 146,35.3999736 146,33.4914338 C146,31.5914602 145.816215,29.6486558 144.467853,28.3089088 C143.634452,27.4642857 142.489891,27 141.243429,27" id="Fill-15" fill="#FFFFFE" mask="url(#mask-2)"></path>
                <polygon id="Fill-16" fill="#FFFFFE" mask="url(#mask-2)" points="158 28.2814971 158 27 150 27 150 40 158 40 158 38.7185029 151.292267 38.7185029 151.292267 33.7946758 157.196986 33.7946758 157.196986 32.5131787 151.292267 32.5131787 151.292267 28.2814971"></polygon>
                <polygon id="Fill-17" fill="#FFFFFE" mask="url(#mask-2)" points="57.314 50 58.686 50 58.686 0 57.314 0"></polygon>
                <path d="M11.4991662,10 C12.3296276,10 13,9.32833333 13,8.5 C13,7.67166667 12.3296276,7 11.4991662,7 C10.6703724,7 10,7.67166667 10,8.5 C10,9.32833333 10.6703724,10 11.4991662,10" id="Fill-18" fill="#FFFFFE" mask="url(#mask-2)"></path>
                <path d="M5.99809524,14 C7.10285714,14 8,13.1047619 8,12 C8,10.8952381 7.10285714,10 5.99809524,10 C4.89333333,10 4,10.8952381 4,12 C4,13.1047619 4.89333333,14 5.99809524,14" id="Fill-19" fill="#FFFFFE" mask="url(#mask-2)"></path>
                <path d="M2,21 C3.1024,21 4,20.1056 4,19 C4,17.8944 3.1024,17 2,17 C0.8944,17 0,17.8944 0,19 C0,20.1056 0.8944,21 2,21" id="Fill-20" fill="#FFFFFE" mask="url(#mask-2)"></path>
                <path d="M3.49913823,31 C4.8814202,31 6,29.8810345 6,28.5 C6,27.1189655 4.8814202,26 3.49913823,26 C2.1185798,26 1,27.1189655 1,28.5 C1,29.8810345 2.1185798,31 3.49913823,31" id="Fill-21" fill="#FFFFFE" mask="url(#mask-2)"></path>
                <path d="M11.0230663,39.4229064 C9.51372697,39.4229064 8.28694998,38.1850105 8.28694998,36.6598092 C8.28694998,35.1346079 9.51372697,33.8967119 11.0230663,33.8967119 C12.5324057,33.8967119 13.7574276,35.1346079 13.7574276,36.6598092 C13.7574276,38.1850105 12.5324057,39.4229064 11.0230663,39.4229064 Z M18.5487025,0 L1,50 L11.7514103,50 L29,0 L18.5487025,0 Z" id="Fill-22" fill="#FFFFFE" mask="url(#mask-2)"></path>
                <path d="M24.5,43 C26.4342105,43 28,41.4323684 28,39.5 C28,37.5676316 26.4342105,36 24.5,36 C22.5657895,36 21,37.5676316 21,39.5 C21,41.4323684 22.5657895,43 24.5,43" id="Fill-23" fill="#FFFFFE" mask="url(#mask-2)"></path>
                <path d="M45.5008618,31 C46.8814202,31 48,29.8810345 48,28.5 C48,27.1189655 46.8814202,26 45.5008618,26 C44.1203033,26 43,27.1189655 43,28.5 C43,29.8810345 44.1203033,31 45.5008618,31" id="Fill-24" fill="#FFFFFE" mask="url(#mask-2)"></path>
                <path d="M36.9770545,39.4229064 C35.4756204,39.4229064 34.2552687,38.1850105 34.2552687,36.6598092 C34.2552687,35.1346079 35.4756204,33.8967119 36.9770545,33.8967119 C38.4784886,33.8967119 39.6970944,35.1346079 39.6970944,36.6598092 C39.6970944,38.1850105 38.4784886,39.4229064 36.9770545,39.4229064 Z M29.3965582,0 L19,0 L36.3066467,50 L47,50 L29.3965582,0 Z" id="Fill-25" fill="#FFFFFE" mask="url(#mask-2)"></path>
                <polygon id="Fill-26" fill="#E4E4E3" mask="url(#mask-2)" points="29 0 19 0 24.0209908 15"></polygon>
            </g>
        </g>
    </g>
</svg>
